<?xml version="1.0" encoding="UTF-8" standalone="no"?>
<!DOCTYPE svg PUBLIC "-//W3C//DTD SVG 20010904//EN"
"http://www.w3.org/TR/2001/REC-SVG-20010904/DTD/svg10.dtd">
<!-- Created with Sodipodi ("http://www.sodipodi.com/") -->
<svg
   id="svg101"
   sodipodi:version="0.31"
   width="64pt"
   height="60pt"
   sodipodi:docbase="///home/manu/"
   sodipodi:docname="///home/manu/chart_pie_1_1.svg"
   xmlns="http://www.w3.org/2000/svg"
   xmlns:sodipodi="http://sodipodi.sourceforge.net/DTD/sodipodi-0.dtd"
   xmlns:xlink="http://www.w3.org/1999/xlink">
  <defs
     id="defs103" />
  <sodipodi:namedview
     id="base" />
  <path
     style="font-size:12;fill:none;fill-rule:evenodd;stroke:#000000;stroke-width:0.75;stroke-dasharray:none;fill-opacity:1;"
     d="M 58.7069 43.4322 L 64.3845 45.7033 M 24.9817 48.6557 L 19.9853 52.6301 M 40.3113 23.9012 L 40.3113 10.729 M 66.2016 36.5056 C 66.2016 50.797 54.6028 62.3958 40.3114 62.3958 C 26.0201 62.3958 14.4212 50.797 14.4212 36.5056 C 14.4212 22.2142 26.0201 10.6155 40.3114 10.6155 C 54.6028 10.6155 66.2016 22.2142 66.2016 36.5056 z M 60.0698 36.5056 C 60.0698 47.4122 51.2181 56.264 40.3115 56.264 C 29.4049 56.264 20.5532 47.4122 20.5532 36.5056 C 20.5532 25.5991 29.4049 16.7474 40.3115 16.7474 C 51.2181 16.7474 60.0698 25.5991 60.0698 36.5056 z "
     id="path157"
     transform="translate(-0.311403,0.994349)" />
  <path
     style="font-size:12;fill:none;fill-rule:evenodd;stroke:#000000;stroke-width:0.75;stroke-dasharray:none;"
     d="M 40.3113 16.7473 L 40.3113 23.7876 M 53.0292 36.619 L 60.0695 36.6191 M 35.4285 47.9743 L 32.3626 54.9011 M 60.0695 36.5055 C 60.0695 47.4121 51.2179 56.2637 40.3113 56.2637 C 29.4048 56.2637 20.553 47.4121 20.553 36.5055 C 20.553 25.599 29.4048 16.7473 40.3113 16.7473 C 51.2179 16.7473 60.0695 25.599 60.0695 36.5055 z M 53.0292 36.5055 C 53.0292 43.5258 47.3316 49.2234 40.3113 49.2234 C 33.291 49.2234 27.5933 43.5258 27.5933 36.5055 C 27.5933 29.4852 33.291 23.7876 40.3113 23.7876 C 47.3316 23.7876 53.0292 29.4852 53.0292 36.5055 z "
     id="path149"
     transform="translate(-0.311251,0.994501)" />
  <path
     sodipodi:type="arc"
     style="font-size:12;fill:#e6facc;fill-rule:evenodd;stroke-width:0.746527;stroke:#000000;stroke-opacity:1;stroke-dasharray:none;fill-opacity:1;"
     id="path113"
     d="M 28.807579,46.456982 A 15.457470,15.457470 0 0 1 35.108841,16.884708 L 35.108826,32.342178 z"
     sodipodi:cx="35.108826"
     sodipodi:cy="32.342178"
     sodipodi:rx="15.457470"
     sodipodi:ry="15.457470"
     transform="matrix(1.67442,0,0,1.67442,-18.7869,-16.6544)"
     sodipodi:start="1.990676"
     sodipodi:end="4.712390" />
  <path
     sodipodi:type="arc"
     style="font-size:12;fill:#f29109;fill-rule:evenodd;stroke-width:0.746527;stroke:#000000;stroke-opacity:1;stroke-dasharray:none;fill-opacity:1;"
     id="path114"
     d="M 50.566090,32.421814 A 15.457470,15.457470 0 0 1 28.760584,46.435909 L 35.108826,32.342178 z"
     sodipodi:cx="35.108826"
     sodipodi:cy="32.342178"
     sodipodi:rx="15.457470"
     sodipodi:ry="15.457470"
     transform="matrix(1.67442,0,0,1.67442,-18.7869,-16.6544)"
     sodipodi:start="0.005152"
     sodipodi:end="1.994008" />
  <path
     sodipodi:type="arc"
     style="font-size:12;fill:#c6c597;fill-rule:evenodd;stroke-width:0.746527;stroke:#000000;stroke-opacity:1;stroke-dasharray:none;fill-opacity:0.996079;"
     id="path115"
     d="M 35.062840,16.884777 A 15.457470,15.457470 0 0 1 50.565269,32.520393 L 35.108826,32.342178 z"
     sodipodi:cx="35.108826"
     sodipodi:cy="32.342178"
     sodipodi:rx="15.457470"
     sodipodi:ry="15.457470"
     transform="matrix(1.67442,0,0,1.67442,-18.7869,-16.6544)"
     sodipodi:start="4.709414"
     sodipodi:end="6.294715" />
</svg>
