<?xml version="1.0" encoding="UTF-8" standalone="no"?>
<!DOCTYPE svg PUBLIC "-//W3C//DTD SVG 20010904//EN"
"http://www.w3.org/TR/2001/REC-SVG-20010904/DTD/svg10.dtd">
<!-- Created with Sodipodi ("http://www.sodipodi.com/") -->
<svg
   id="svg101"
   sodipodi:version="0.31"
   width="64pt"
   height="60pt"
   sodipodi:docbase="///home/manu/"
   sodipodi:docname="///home/manu/chart_ring_1_1.svg"
   xmlns="http://www.w3.org/2000/svg"
   xmlns:sodipodi="http://sodipodi.sourceforge.net/DTD/sodipodi-0.dtd"
   xmlns:xlink="http://www.w3.org/1999/xlink">
  <defs
     id="defs103" />
  <sodipodi:namedview
     id="base" />
  <path
     style="fill:none;stroke:#c7c698;stroke-opacity:0.996081;stroke-width:6.375;stroke-linejoin:miter;stroke-linecap:butt;fill-opacity:1;fill-rule:evenodd;stroke-dasharray:none;"
     d="M 40.4249 13.6814 C 55.1868 13.4543 67.6776 28.2162 61.5457 44.5678 "
     id="path161"
     sodipodi:nodetypes="cc" />
  <path
     style="fill:none;stroke:#c7c698;stroke-opacity:0.996081;stroke-width:6.625;stroke-linejoin:miter;stroke-linecap:butt;fill-opacity:1;fill-rule:evenodd;stroke-dasharray:none;"
     d="M 40.5385 13.6814 C 51.0989 13.7949 56.8901 22.4249 56.6629 29.9195 "
     id="path162"
     sodipodi:nodetypes="cc"
     transform="translate(-0.227108,6.58607)" />
  <path
     style="fill:none;stroke:#f29108;stroke-opacity:0.996081;stroke-width:6.125;stroke-linejoin:miter;stroke-linecap:butt;fill-opacity:1;fill-rule:evenodd;stroke-dasharray:none;"
     d="M 77.5473 8.08808 C 90.0793 21.2623 82.4714 42.0505 66.091 45.8514 "
     id="path163"
     sodipodi:nodetypes="cc"
     transform="matrix(0.429851,0.9029,-0.9029,0.429851,35.3988,-28.7007)" />
  <path
     style="fill:none;stroke:#f29108;stroke-opacity:0.996081;stroke-width:6.75;stroke-linejoin:miter;stroke-linecap:butt;fill-opacity:1;fill-rule:evenodd;stroke-dasharray:none;"
     d="M 62.8339 19.4451 C 71.9477 23.9491 75.8704 36.8957 66.6574 46.2468 "
     id="path164"
     sodipodi:nodetypes="cc"
     transform="matrix(0.429851,0.9029,-0.9029,0.429851,46.9812,-28.4736)" />
  <path
     style="fill:none;stroke:#e6facd;stroke-opacity:0.996079;stroke-width:6.5;stroke-linejoin:miter;stroke-linecap:butt;fill-opacity:1;fill-rule:evenodd;stroke-dasharray:none;"
     d="M 90.7323 46.4352 C 72.7605 50.2436 56.8691 31.371 65.2289 14.3771 "
     id="path165"
     sodipodi:nodetypes="cc"
     transform="matrix(0.429851,0.9029,-0.9029,0.429851,24.9519,-51.4113)" />
  <path
     style="fill:none;stroke:#e6facd;stroke-opacity:0.996079;stroke-width:6.5;stroke-linejoin:miter;stroke-linecap:butt;fill-opacity:1;fill-rule:evenodd;stroke-dasharray:none;"
     d="M 63.2879 19.2839 C 60.4636 25.945 61.6284 33.4335 67.712 38.5067 C 73.8348 43.5759 82.5318 43.7916 88.5477 38.3066 "
     id="path166"
     sodipodi:nodetypes="csc"
     transform="matrix(0.429851,0.9029,-0.9029,0.429851,30.2889,-45.0523)" />
  <path
     style="font-size:12;fill:none;fill-rule:evenodd;stroke:#000000;stroke-width:1.25;stroke-dasharray:none;fill-opacity:1;"
     d="M 58.7069 43.4322 L 64.3845 45.7033 M 24.9817 48.6557 L 19.9853 52.6301 M 40.3113 23.9012 L 40.3113 10.729 M 66.2016 36.5056 C 66.2016 50.797 54.6028 62.3958 40.3114 62.3958 C 26.0201 62.3958 14.4212 50.797 14.4212 36.5056 C 14.4212 22.2142 26.0201 10.6155 40.3114 10.6155 C 54.6028 10.6155 66.2016 22.2142 66.2016 36.5056 z M 60.0698 36.5056 C 60.0698 47.4122 51.2181 56.264 40.3115 56.264 C 29.4049 56.264 20.5532 47.4122 20.5532 36.5056 C 20.5532 25.5991 29.4049 16.7474 40.3115 16.7474 C 51.2181 16.7474 60.0698 25.5991 60.0698 36.5056 z "
     id="path157" />
  <path
     style="font-size:12;fill:none;fill-rule:evenodd;stroke:#000000;stroke-width:1.25;stroke-dasharray:none;"
     d="M 40.3113 16.7473 L 40.3113 23.7876 M 53.0292 36.619 L 60.0695 36.6191 M 35.4285 47.9743 L 32.3626 54.9011 M 60.0695 36.5055 C 60.0695 47.4121 51.2179 56.2637 40.3113 56.2637 C 29.4048 56.2637 20.553 47.4121 20.553 36.5055 C 20.553 25.599 29.4048 16.7473 40.3113 16.7473 C 51.2179 16.7473 60.0695 25.599 60.0695 36.5055 z M 53.0292 36.5055 C 53.0292 43.5258 47.3316 49.2234 40.3113 49.2234 C 33.291 49.2234 27.5933 43.5258 27.5933 36.5055 C 27.5933 29.4852 33.291 23.7876 40.3113 23.7876 C 47.3316 23.7876 53.0292 29.4852 53.0292 36.5055 z "
     id="path149" />
</svg>
