<?xml version="1.0" encoding="UTF-8" standalone="no"?>
<!DOCTYPE svg PUBLIC "-//W3C//DTD SVG 20010904//EN"
"http://www.w3.org/TR/2001/REC-SVG-20010904/DTD/svg10.dtd">
<!-- Created with Sodipodi ("http://www.sodipodi.com/") -->
<svg
   id="svg101"
   sodipodi:version="0.31"
   width="64pt"
   height="60pt"
   sodipodi:docbase="///home/manu/"
   sodipodi:docname="///home/manu/chart_ring_1_2.svg"
   xmlns="http://www.w3.org/2000/svg"
   xmlns:sodipodi="http://sodipodi.sourceforge.net/DTD/sodipodi-0.dtd"
   xmlns:xlink="http://www.w3.org/1999/xlink">
  <defs
     id="defs103" />
  <sodipodi:namedview
     id="base">
    <sodipodi:guide
       orientation="vertical"
       position="32.249"
       id="guide175" />
    <sodipodi:guide
       orientation="horizontal"
       position="30.795570"
       id="guide176" />
  </sodipodi:namedview>
  <path
     style="fill:none;stroke:#c7c698;stroke-opacity:0.996081;stroke-width:6.375;stroke-linejoin:miter;stroke-linecap:butt;fill-opacity:1;fill-rule:evenodd;stroke-dasharray:none;"
     d="M 40.4249 13.6814 C 55.1868 13.4543 67.6776 28.2162 61.5457 44.5678 "
     id="path161"
     sodipodi:nodetypes="cc"
     transform="translate(5.31704,-3.70389)" />
  <path
     style="fill:none;stroke:#c7c698;stroke-opacity:0.996081;stroke-width:6.625;stroke-linejoin:miter;stroke-linecap:butt;fill-opacity:1;fill-rule:evenodd;stroke-dasharray:none;"
     d="M 40.5385 13.6814 C 51.0989 13.7949 56.8901 22.4249 56.6629 29.9195 "
     id="path162"
     sodipodi:nodetypes="cc"
     transform="translate(-0.227108,6.58607)" />
  <path
     style="fill:none;stroke:#f29108;stroke-opacity:0.996081;stroke-width:6.125;stroke-linejoin:miter;stroke-linecap:butt;fill-opacity:1;fill-rule:evenodd;stroke-dasharray:none;"
     d="M 77.5473 8.08808 C 90.0793 21.2623 82.4714 42.0505 66.091 45.8514 "
     id="path163"
     sodipodi:nodetypes="cc"
     transform="matrix(0.429851,0.9029,-0.9029,0.429851,36.4325,-21.9976)" />
  <path
     style="fill:none;stroke:#f29108;stroke-opacity:0.996081;stroke-width:6.75;stroke-linejoin:miter;stroke-linecap:butt;fill-opacity:1;fill-rule:evenodd;stroke-dasharray:none;"
     d="M 62.8339 19.4451 C 71.9477 23.9491 75.8704 36.8957 66.6574 46.2468 "
     id="path164"
     sodipodi:nodetypes="cc"
     transform="matrix(0.429851,0.9029,-0.9029,0.429851,46.9812,-28.4736)" />
  <path
     style="fill:none;stroke:#e6facd;stroke-opacity:0.996079;stroke-width:6.375;stroke-linejoin:miter;stroke-linecap:butt;fill-opacity:1;fill-rule:evenodd;stroke-dasharray:none;"
     d="M 90.7323 46.4352 C 72.7605 50.2436 56.8691 31.371 65.2289 14.3771 "
     id="path165"
     sodipodi:nodetypes="cc"
     transform="matrix(0.429851,0.9029,-0.9029,0.429851,18.3506,-54.8881)" />
  <path
     style="fill:none;stroke:#e6facd;stroke-opacity:0.996079;stroke-width:6.5;stroke-linejoin:miter;stroke-linecap:butt;fill-opacity:1;fill-rule:evenodd;stroke-dasharray:none;"
     d="M 63.2879 19.2839 C 60.4636 25.945 61.6284 33.4335 67.712 38.5067 C 73.8348 43.5759 82.5318 43.7916 88.5477 38.3066 "
     id="path166"
     sodipodi:nodetypes="csc"
     transform="matrix(0.429851,0.9029,-0.9029,0.429851,30.2889,-45.0523)" />
  <path
     style="font-size:12;fill:none;fill-rule:evenodd;stroke:#000000;stroke-width:1.25;stroke-dasharray:none;"
     d="M 40.3113 16.7473 L 40.3113 23.7876 M 53.0292 36.619 L 60.0695 36.6191 M 35.4285 47.9743 L 32.3626 54.9011 M 60.0695 36.5055 C 60.0695 47.4121 51.2179 56.2637 40.3113 56.2637 C 29.4048 56.2637 20.553 47.4121 20.553 36.5055 C 20.553 25.599 29.4048 16.7473 40.3113 16.7473 C 51.2179 16.7473 60.0695 25.599 60.0695 36.5055 z M 53.0292 36.5055 C 53.0292 43.5258 47.3316 49.2234 40.3113 49.2234 C 33.291 49.2234 27.5933 43.5258 27.5933 36.5055 C 27.5933 29.4852 33.291 23.7876 40.3113 23.7876 C 47.3316 23.7876 53.0292 29.4852 53.0292 36.5055 z "
     id="path149" />
  <path
     style="font-size:12;fill:none;fill-rule:evenodd;stroke:#000000;stroke-width:1.25;stroke-dasharray:none;"
     d="M 36.3369 14.8167 L 36.3308 8.96904 C 30.426 8.88865 25.2869 10.5319 20.5472 14.2311 C 9.38 22.9471 7.3906 39.0842 16.0588 50.1917 L 20.9652 46.7541 C 14.2352 38.3371 15.5698 25.9626 24.0156 19.1612 C 27.6607 16.2258 31.6566 14.8167 36.3369 14.8167 z "
     id="path197"
     sodipodi:nodetypes="ccccccc"
     transform="translate(-2.62686,-1.43283)" />
  <path
     style="font-size:12;fill:none;fill-rule:evenodd;stroke:#000000;stroke-width:1.25;stroke-dasharray:none;"
     d="M 62.1437 41.0463 L 67.6288 43.2957 C 68.8534 40.3481 69.3677 37.5901 69.3808 34.3382 C 69.4379 20.1723 57.9874 8.6289 43.9401 8.62838 L 43.8882 14.5329 C 54.5618 14.5896 63.3626 23.3904 63.3626 34.2343 C 63.3626 36.6789 62.9914 38.7533 62.1437 41.0463 z "
     id="path207"
     sodipodi:nodetypes="ccccccc"
     transform="translate(1.91045,-1.43283)" />
  <path
     style="font-size:12;fill:none;fill-rule:evenodd;stroke:#000000;stroke-width:1.25;stroke-dasharray:none;"
     d="M 65.0669 50.0118 L 59.7004 47.8621 C 55.2164 57.7595 44.1859 63.0469 34.0631 59.1591 C 30.578 57.8206 27.9259 55.8582 25.7019 52.9436 L 21.0471 56.8399 C 23.9687 60.5242 27.4051 63.0513 31.9151 64.7813 C 45.1413 69.8548 59.9934 63.238 65.0669 50.0118 z "
     id="path212"
     sodipodi:nodetypes="ccccccc"
     transform="translate(0.23881,2.38806)" />
</svg>
