/* XPM */
static char const * auto_sum_xpm[] = {
"24 24 43 1",
" 	c None",
".	c #000000",
"+	c #0C0C0D",
"@	c #F8F8F8",
"#	c #F7F7F8",
"$	c #F7F7F7",
"%	c #F5F5F4",
"&	c #F4F3F3",
"*	c #F3F3F2",
"=	c #F0F0EF",
"-	c #F1F1F0",
";	c #EFEFEE",
">	c #EBEAE8",
",	c #E8E8E5",
"'	c #B2AD93",
")	c #8A8C6B",
"!	c #8D8F70",
"~	c #E5E4E0",
"{	c #A3A186",
"]	c #D6D4CB",
"^	c #9D9B7C",
"/	c #CFCDC0",
"(	c #959576",
"_	c #D8D6CD",
":	c #919271",
"<	c #CDCABC",
"[	c #8B8C6B",
"}	c #858867",
"|	c #F4F4F3",
"1	c #898B6C",
"2	c #F2F1F1",
"3	c #8F8F70",
"4	c #2F2F2F",
"5	c #888A6D",
"6	c #E4E2DD",
"7	c #8C8D6E",
"8	c #D9D7CE",
"9	c #E0DED9",
"0	c #E5E3DE",
"a	c #F3F2F2",
"b	c #F2F2F1",
"c	c #838665",
"d	c #66674E",
"                        ",
"                        ",
"                        ",
"   ................     ",
"   +@##@$$%&*=-;>,.     ",
"   .&'''''''''''').     ",
"    .;''.........!.     ",
"     .~'{.       ..     ",
"      .]'^.       .     ",
"       ./'(.            ",
"        ._':.           ",
"         .<'[.          ",
"         .,'}.          ",
"        +-'}.           ",
"       +|'1.      .     ",
"      .2'3.      ..     ",
"     4,'5.      .;.     ",
"    .6'1........-7.     ",
"   .8''/90--ab**'c.     ",
"   .^^^^^^^^^^^)}d.     ",
"   ................     ",
"                        ",
"                        ",
"                        "};
