/* XPM */
static char * column_hide_16_xpm[] = {
"16 16 13 1",
" 	c None",
".	c #000000",
"+	c #FFFFFF",
"@	c #E4E4E4",
"#	c #FCFCFC",
"$	c #E1E1D3",
"%	c #ECECEC",
"&	c #B8B8B8",
"*	c #CCCC98",
"=	c #F7F7F1",
"-	c #9E9E91",
";	c #CCCC97",
">	c #7E7E7C",
"                ",
"                ",
"                ",
"  .....   ..... ",
"  .++@ # $ ++@. ",
"  .+%&. * .+%&. ",
"  .+%& = - +%&. ",
"  .+%&. ; .+%&. ",
"  .+%& = - +%&. ",
"  .+%&. ; .+%&. ",
"  .+%& = - +%&. ",
"  .+%&. * .+%&. ",
"  .@&& = > @&&. ",
"  .....   ..... ",
"                ",
"                "};
