/* XPM */
static char * comment_edit_16_xpm[] = {
"16 16 55 1",
" 	c None",
".	c #000000",
"+	c #E6CECE",
"@	c #A87E7E",
"#	c #010101",
"$	c #604D00",
"%	c #5F4747",
"&	c #CC9999",
"*	c #FFCC66",
"=	c #9B8736",
"-	c #C1C1C1",
";	c #E7E7E7",
">	c #F1F1F1",
",	c #F5F5F5",
"'	c #F3F3F3",
")	c #FF9900",
"!	c #7E5E1F",
"~	c #D3D3D3",
"{	c #EDEDED",
"]	c #F8F8F8",
"^	c #FDFDFD",
"/	c #FEFEFE",
"(	c #C97800",
"_	c #D5D5D5",
":	c #FBFBFB",
"<	c #FFFFFF",
"[	c #FBFAC5",
"}	c #9E5E00",
"|	c #EFEFEF",
"1	c #ABABAB",
"2	c #FCFAC5",
"3	c #736B49",
"4	c #FCFCFC",
"5	c #E8E8E8",
"6	c #36362B",
"7	c #EEEEEE",
"8	c #C5C5C5",
"9	c #F2F2F2",
"0	c #8B8B8B",
"a	c #E2E2E2",
"b	c #E6E6E6",
"c	c #C2C2C2",
"d	c #B8B8B8",
"e	c #F0F0F0",
"f	c #FAFAFA",
"g	c #9D9D9D",
"h	c #DBDBDB",
"i	c #EBEBEB",
"j	c #8F8F8F",
"k	c #E5E5E5",
"l	c #F7F7F7",
"m	c #9B9B9B",
"n	c #E9E9E9",
"o	c #E0E0E0",
"p	c #C0C0C0",
"            ..  ",
"           .+@# ",
"          .$%&# ",
"    .......*=.  ",
"  ..-;>,'.*)!.  ",
" .~{]^//..*(..  ",
"._:<<<<<.[}.|1. ",
".'<<<<<<.23.45. ",
".5^<<<<<..6<47. ",
".89]0a0b.<<^4c. ",
" .de7^^^/^^fg.  ",
"  ..-hi4^9j..   ",
"    ...klm.     ",
"      .no.      ",
"      .p.       ",
"     ...        "};
