/* XPM */
static char *gp_thatch[] = {
/* width height num_colors chars_per_pixel */
"    20    20        2            1",
/* colors */
". c #000000",
"# c #ffffff",
/* pixels */
"###.###.###.###.###.",
".#.###...#.###...#.#",
"..###.....###.....##",
".###.#...###.#...###",
"###.###.###.###.###.",
".#...###.#...###.#..",
"#.....###.....###...",
"##...#.###...#.###..",
"###.###.###.###.###.",
".#.###...#.###...#.#",
"..###.....###.....##",
".###.#...###.#...###",
"###.###.###.###.###.",
".#...###.#...###.#..",
"#.....###.....###...",
"##...#.###...#.###..",
"###.###.###.###.###.",
".#.###...#.###...#.#",
"..###.....###.....##",
".###.#...###.#...###"
};
