/* XPM */
static char * group_24_xpm[] = {
"24 24 99 2",
"  	c None",
". 	c #000000",
"+ 	c #272D31",
"@ 	c #8EA3B2",
"# 	c #B7D2E5",
"$ 	c #B4D1E3",
"% 	c #8AA0AF",
"& 	c #252C30",
"* 	c #738490",
"= 	c #B5D2E4",
"- 	c #B2CFE2",
"; 	c #AFCDE0",
"> 	c #ACCBDE",
", 	c #A9C9DD",
"' 	c #687D8A",
") 	c #B1CEE1",
"! 	c #AECCDF",
"~ 	c #ABCADD",
"{ 	c #A8C7DC",
"] 	c #A5C5DA",
"^ 	c #A2C3D8",
"/ 	c #647987",
"( 	c #B5D1E3",
"_ 	c #AABFAA",
": 	c #A9C8DC",
"< 	c #A6C6DB",
"[ 	c #A3C4D9",
"} 	c #A0C2D7",
"| 	c #9DBFD5",
"1 	c #9ABDD4",
"2 	c #20282D",
"3 	c #B6D2E4",
"4 	c #B3D0E2",
"5 	c #B0CEE1",
"6 	c #CCE5CC",
"7 	c #93BC93",
"8 	c #A1C3D8",
"9 	c #9EC0D6",
"0 	c #9BBED4",
"a 	c #98BCD3",
"b 	c #95BAD1",
"c 	c #718EA1",
"d 	c #9ABDD3",
"e 	c #97BBD2",
"f 	c #94B8D0",
"g 	c #91B6CE",
"h 	c #8EB4CC",
"i 	c #889988",
"j 	c #92B7CF",
"k 	c #8FB5CD",
"l 	c #8CB3CB",
"m 	c #89B1C9",
"n 	c #8DB4CC",
"o 	c #8AB1CA",
"p 	c #87AFC8",
"q 	c #85ADC7",
"r 	c #8CB2CB",
"s 	c #89B0C9",
"t 	c #86AEC7",
"u 	c #83ACC6",
"v 	c #80AAC4",
"w 	c #7E98A8",
"x 	c #9FC1D6",
"y 	c #9CBED5",
"z 	c #99BCD3",
"A 	c #84ADC6",
"B 	c #81AAC5",
"C 	c #7EA8C3",
"D 	c #5F8196",
"E 	c #21292D",
"F 	c #94B9D0",
"G 	c #88B0C9",
"H 	c #85AEC7",
"I 	c #82ABC5",
"J 	c #7FA9C4",
"K 	c #7CA7C2",
"L 	c #7AA5C0",
"M 	c #192328",
"N 	c #5E7583",
"O 	c #93B7CF",
"P 	c #90B5CD",
"Q 	c #84ACC6",
"R 	c #81AAC4",
"S 	c #7BA6C1",
"T 	c #78A3BF",
"U 	c #496577",
"V 	c #597180",
"W 	c #8BB2CA",
"X 	c #7FA9C3",
"Y 	c #79A4C0",
"Z 	c #76A2BE",
"` 	c #486576",
" .	c #1C252B",
"..	c #66869A",
"+.	c #7DA8C2",
"@.	c #7AA5C1",
"#.	c #77A3BF",
"$.	c #5A7D93",
"%.	c #182228",
"                                                ",
"                                                ",
"                                                ",
"                                                ",
"                        . . . . . .             ",
"                    . + @ # # # $ % & .         ",
"                  . * # # # = - ; > , ' .       ",
"                . * # # . . ) ! ~ { ] ^ / .     ",
"                + # # ( . _ . : < [ } | 1 2     ",
"              . @ 3 4 5 . 6 7 . 8 9 0 a b c .   ",
"        . . . . . . . . . 6 7 7 . d e f g h .   ",
"        . 6 6 6 6 6 6 6 6 6 7 7 i . j k l m .   ",
"        . 6 7 7 7 7 7 7 7 7 7 7 i . n o p q .   ",
"        . . . . . . . . . 7 7 i . r s t u v .   ",
"              . w x y z . 7 i . o p A B C D .   ",
"                E 1 e F . i . G H I J K L M     ",
"                . N O P . . p Q R C S T U .     ",
"                  . V W G q I X K Y Z ` .       ",
"                    .  ...v +.@.#.$.%..         ",
"                        . . . . . .             ",
"                                                ",
"                                                ",
"                                                ",
"                                                "};
