/* XPM */
static char * hide_detail_16_xpm[] = {
"16 16 28 1",
" 	c None",
".	c #000000",
"+	c #FFFFFF",
"@	c #B7D3E5",
"#	c #B1CFE1",
"$	c #AFCDE0",
"%	c #ACCBDE",
"&	c #AAC9DD",
"*	c #A7C7DB",
"=	c #A5C5DA",
"-	c #A2C3D8",
";	c #9FC1D7",
">	c #9DBFD5",
",	c #9ABDD4",
"'	c #98BBD2",
")	c #95B9D1",
"!	c #6F9DBA",
"~	c #92B7CF",
"{	c #90B6CD",
"]	c #8DB4CC",
"^	c #8BB2CA",
"/	c #88B0C9",
"(	c #86AEC7",
"_	c #83ACC6",
":	c #80AAC4",
"<	c #7EA8C3",
"[	c #7BA6C1",
"}	c #79A4C0",
"................",
".+@@@@@@@@@@@@@.",
".@#$%&*=-;>,')!.",
".@$%&*=-;....~!.",
".@%&*=-;>,')~{!.",
".@&......')..]!.",
".@*......)~{]^!.",
".@=-;>,')~{../!.",
".@-;>,')~{]^/(!.",
".@;>,')~{...._!.",
".@>,')~{]^/(_:!.",
".@,')~{]^/(..<!.",
".@')~{]^/(_:<[!.",
".@)~{]^/(_:<[}!.",
".@!!!!!!!!!!!!!.",
"................"};
