/* XPM */
static char * insert_shaped_component_16_xpm[] = {
"16 16 42 1",
" 	c None",
".	c #000000",
"+	c #F68A8A",
"@	c #F68080",
"#	c #F67F7F",
"$	c #F56B6B",
"%	c #F24848",
"&	c #F56F6F",
"*	c #EF0404",
"=	c #F24343",
"-	c #D60303",
";	c #FFFFFF",
">	c #B8B8B8",
",	c #AC0101",
"'	c #F35A5A",
")	c #7C7C7C",
"!	c #E45F5F",
"~	c #F35656",
"{	c #A70202",
"]	c #ECECEC",
"^	c #F68F8F",
"/	c #E90404",
"(	c #BB0202",
"_	c #999999",
":	c #CECECE",
"<	c #B2B2B2",
"[	c #F57575",
"}	c #F13434",
"|	c #B10202",
"1	c #ABABAB",
"2	c #9C9C9C",
"3	c #7B4545",
"4	c #959595",
"5	c #C00202",
"6	c #BEBEBE",
"7	c #8E8E8E",
"8	c #B9B9B9",
"9	c #898989",
"0	c #9E9E9E",
"a	c #929292",
"b	c #E4E4E4",
"c	c #7B7B7B",
"            ... ",
"     ....   . . ",
"    .+@#$.  ... ",
"   .%&**=*.  .  ",
"   .-*****......",
"   ..--***-.;.>.",
"   .;.,'**-..)>.",
"   ..-!~**{..]>.",
"   .^***/(._.:<.",
"  .[}***|.1.2]>.",
"  .~**-|34].]]>.",
"   .*-5.)6...:<.",
"   ....__:.].7>.",
"   .89)0]:...a>.",
"   .b>>>><>cc9>.",
"   ............."};
