/* XPM */
static char * middle_horiz_border[] = {
"22 22 3 1",
".	c None",
"o	c grey63",
"#	c black",
"o.o.o.o.o.o.o.o.o.o.o.",
"......................",
"o......o......o......o",
"......................",
"o......o......o......o",
"......................",
"o......o......o......o",
"######################",
"o......o......o......o",
"......................",
"o......o......o......o",
"......................",
"o......o......o......o",
"......................",
"######################"
"o......o......o......o",
"......................",
"o......o......o......o",
"......................",
"o......o......o......o",
"......................",
"o.o.o.o.o.o.o.o.o.o.o."
};
