/* XPM */
static char *line_pattern_double[] = {
/* width height num_colors chars_per_pixel */
"   54    19        2            1",
/* colors */
"# c #000000",
". c #ffffff",
"......................................................",
"......................................................",
"......................................................",
"......................................................",
"......................................................",
"......................................................",
"......................................................",
"......................................................",
"......................................................",
"######################################################",
"......................................................",
"######################################################",
"......................................................",
"......................................................",
"......................................................",
"......................................................",
"......................................................",
"......................................................",
"......................................................",
"......................................................",
"......................................................",
};
