/* XPM */
static char *line_xpm[] = {
/* width height num_colors chars_per_pixel */
"    24    24        2            1",
/* colors */
". c #000000",
"# c None",
/* pixels */
"########################",
"########################",
"##.#####################",
"###.####################",
"####.###################",
"#####.##################",
"######.#################",
"#######.################",
"########.###############",
"#########.##############",
"##########.#############",
"###########.############",
"############.###########",
"#############.##########",
"##############.#########",
"###############.########",
"################.#######",
"#################.######",
"##################.#####",
"###################.####",
"####################.###",
"#####################.##",
"########################",
"########################"
};
