/* XPM */
static char * top_border[] = {
"15 15 3 1",
".	c None",
"o	c grey63",
"#	c black",
"###############",
"...............",
"o......o......o",
"...............",
"o......o......o",
"...............",
"o......o......o",
"..o.o.o.o.o.o..",
"o......o......o",
"...............",
"o......o......o",
"...............",
"o......o......o",
"...............",
"o.o.o.o.o.o.o.o"
};
