/* XPM */
static char * zoom_in_xpm[] = {
"24 24 8 1",
" 	c None",
".	c #959490",
"+	c #000015",
"@	c #000001",
"#	c #000000",
"$	c #585754",
"%	c #AEADA8",
"&	c #191918",
"                        ",
"                        ",
"    .+@#@#.             ",
"   ##     ##            ",
"  ##       ##           ",
" .#   .#.   #.          ",
" #    .#.    #          ",
" #  ..$#$..  #          ",
" #  #######  #          ",
" #  ..$#$..  #          ",
" #    .#.    #          ",
" .#   .#.   ##          ",
"  ##       #$#          ",
"   ##     #%.$#         ",
"    #####&##%.$#        ",
"     #####  #%.$#       ",
"             #%.$#      ",
"              #%.$#     ",
"               #%.$#    ",
"                #%.$#   ",
"                 #$%%#  ",
"                  #%%#  ",
"                   ##   ",
"                        "};
