/* XPM */
static char * gnome_gnumeric_xpm[] = {
"32 32 33 1",
"   c None",
".  c #060707",
"+  c #ABAAAA",
"@  c #544742",
"#  c #A45A4A",
"$  c #227688",
"%  c #A6A556",
"&  c #CCCF68",
"*  c #1D1D1D",
"=  c #A39E9D",
"-  c #6C737B",
";  c #C8B29F",
">  c #B95E4A",
",  c #808044",
"'  c #484D4F",
")  c #BAC38F",
"!  c #D48A75",
"~  c #DD6D57",
"{  c #998F6A",
"]  c #838E67",
"^  c #D2D2B3",
"/  c #4D6576",
"(  c #273239",
"_  c #C2A25A",
":  c #9D786A",
"<  c #7791A9",
"[  c #433A39",
"}  c #EBEBEB",
"|  c #CA624E",
"1  c #32879A",
"2  c #A0A4A7",
"3  c #4B8893",
"4  c #795145",
"                                ",
" -++++++++++++++++++++++++2[    ",
" +^+22222222222222=2======}[    ",
" ++'-----(-------*-------*}'    ",
" +2-<<<<<(2<<<<<<(2<<<<<<(^'    ",
" +2((((((.(((((((.(((((((.}[    ",
" +2-22222(}}}}}}}/}}}}}}}'}[    ",
" +2-<<3<<(}}}}}}}'}}}}}}}'}'    ",
" +2-<<<<<(}}}}}}}'}}}}}}}'^[    ",
" +2-<<<<<[}}}}}}}'}}}}}}}'}'    ",
" +2((([([*/'/4/'/*'''''''*^[    ",
" 2=32<2<<(}}}}}}}'}}}}}}}'}'    ",
" +=-<<<<<(}}}}}}}'}}}}}}}@^[    ",
" +2-<<<<<(}}}+]:-[-:<;}}}'}'    ",
" +2'/////*2:4|~~~~||>4@:{(^[    ",
" +</----'@|~~~~~~|~|||>#[*^'    ",
" +2-<<</#~~~~~~~|||||>>>>#4(    ",
" +2-<</:~~~~~~~~||||>>>#>##[    ",
" +=-<-#~~~~~~|||||>>>>>#####*   ",
" 22*((!~~~~~~||||>>>>#######4   ",
" +2-2'!~~~|||||>>>###4#44444#   ",
" 22-<[!~~~||||>>>=313/$//$/$3   ",
" +=-<';~||||>>>>~&<1111$$$$$'.  ",
" 2=-<@;!|||>>>>#;&)11$$$$$$3(.  ",
" ++''@:;~|>>>##>&&&<1$$$$$1'*   ",
" +}}}}:!!~>>>##:&&&)1$$$$$$(.   ",
" -]:<:-[:!~>###_&&&)<$$1/'(.    ",
"  ......(4!~|#>)&&&&)3/$((..    ",
"          *44>:%%%]],'((..      ",
"            *([,],,//(...       ",
"               ......           ",
"                                "};
