/* XPM */
static char *gnome_gnumeric[] = {
/* columns rows colors chars-per-pixel */
"32 32 148 2",
"   c #440000",
".  c #550000",
"X  c #660000",
"o  c #770000",
"O  c #661111",
"+  c #771111",
"@  c #661122",
"#  c #552233",
"$  c #553333",
"%  c #662222",
"&  c #772222",
"*  c #666600",
"=  c #775522",
"-  c #777722",
";  c #444444",
":  c #554444",
">  c #445544",
",  c #555555",
"<  c #664455",
"1  c #775555",
"2  c #556655",
"3  c #554466",
"4  c #555577",
"5  c gray40",
"6  c #777777",
"7  c #881111",
"8  c #AA0000",
"9  c #AA1111",
"0  c #882222",
"q  c #992222",
"w  c #883333",
"e  c #AA2222",
"r  c #BB2222",
"t  c #BB3333",
"y  c #DD3333",
"u  c #EE3333",
"i  c #884433",
"p  c #CC5533",
"a  c #884444",
"s  c #BB4444",
"d  c #885577",
"f  c #886666",
"g  c #996666",
"h  c #887777",
"j  c #997777",
"k  c #CC4444",
"l  c #DD4444",
"z  c #DD5544",
"x  c #DD5555",
"c  c #EE4444",
"v  c #EE5555",
"b  c #DD6655",
"n  c #CC6666",
"m  c #DD6666",
"M  c #EE6666",
"N  c #FF6666",
"B  c #EE7777",
"V  c #FF7777",
"C  c #558800",
"Z  c #559900",
"A  c #559911",
"S  c #778822",
"D  c #779933",
"F  c #55AA22",
"G  c #77DD22",
"H  c #77AA44",
"J  c #778877",
"K  c #AAAA33",
"L  c #88DD33",
"P  c #99AA55",
"I  c #BBAA55",
"U  c #888877",
"Y  c #998877",
"T  c #BBAA66",
"R  c #AABB66",
"E  c #DD8866",
"W  c #CCBB66",
"Q  c #88DD44",
"!  c #99DD44",
"~  c #99DD55",
"^  c #99DD66",
"/  c #BBCC66",
"(  c #BBCC77",
")  c #BBDD77",
"_  c #AAEE77",
"`  c #224488",
"'  c #335588",
"]  c #335599",
"[  c #336699",
"{  c #555588",
"}  c #445599",
"|  c #446688",
" . c #446699",
".. c #556699",
"X. c #557799",
"o. c #666699",
"O. c #777799",
"+. c #4477AA",
"@. c #4477BB",
"#. c #5577BB",
"$. c #887799",
"%. c #AA6688",
"&. c #BB7788",
"*. c #5588BB",
"=. c #7788AA",
"-. c #6688BB",
";. c #7788BB",
":. c #6699BB",
">. c #7799BB",
",. c #6699CC",
"<. c #7799CC",
"1. c #888888",
"2. c #998888",
"3. c #889988",
"4. c #999988",
"5. c #998899",
"6. c gray60",
"7. c #BB8888",
"8. c #AA9999",
"9. c #BB9999",
"0. c #99AA99",
"q. c #AAAA88",
"w. c #AAAA99",
"e. c #9988AA",
"r. c #8899BB",
"t. c #9999BB",
"y. c #AAAAAA",
"u. c #BBBBAA",
"i. c #BBBBBB",
"p. c #EE8888",
"a. c #FF8888",
"s. c #EE9999",
"d. c #FF9999",
"f. c #CCAAAA",
"g. c #CCBBBB",
"h. c #BBDD88",
"j. c #BBEE88",
"k. c #CCDD88",
"l. c #CCCCBB",
"z. c #8899CC",
"x. c #88AACC",
"c. c gray80",
"v. c #DDDDCC",
"b. c #DDDDDD",
"n. c #EEEEDD",
"m. c #EEEEEE",
"M. c gray100",
"N. c None",
/* pixels */
"N.2 , , , , , , , , , , , , , , , , , , , , , , , 2 N.N.N.N.N.N.",
"2 y.M.M.M.M.M.M.M.M.M.M.M.M.M.M.M.M.M.M.M.M.M.M.M.y.2 N.N.N.N.N.",
", M.i.y.y.y.y.y.6.y.y.y.y.y.y.y.6.y.y.y.y.y.y.y.i.M., N.N.N.N.N.",
", M.y.b.b.b.b.b.y.b.b.b.b.b.b.b.y.b.b.b.b.b.b.b.y.M., N.N.N.N.N.",
", M.y.b.b.b.b.c.6.c.c.c.c.c.c.c.w.c.c.c.c.c.c.c.y.M., N.N.N.N.N.",
", M.y.b.b.v.c.c.6.c.c.c.c.c.c.c.6.c.c.c.c.c.c.c.y.M., N.N.N.N.N.",
", M.y.v.c.c.c.c.6.c.c.c.c.c.c.c.6.c.c.c.c.c.c.c.y.M., N.N.N.N.N.",
", M.1.6.1.1.1.6 5 6.6.6.6.6.6.6.1.6.6.6.6.6.6.6.3.M., N.N.N.N.N.",
", M.y.v.c.c.c.i.6.m.m.m.m.m.m.m.i.m.m.m.m.m.m.m.i.M., N.N.N.N.N.",
", M.y.v.c.c.c.i.6.m.m.m.m.m.m.m.i.m.m.m.m.m.m.m.i.M., N.N.N.N.N.",
", M.y.c.c.c.c.i.6.m.m.m.m.m.g.7.a w + X & w g 7.8.M., N.N.N.N.N.",
", M.6.y.6.6.6.6.U i.i.i.Y & 0 t l v N V M v k t + a : N.N.N.N.N.",
", M.y.c.c.c.l.i.4.n.f.& q x V V V V V V V V V N V x 0 X N.N.N.N.",
", M.y.c.c.c.l.i.4.f.+ M V V V V V V N N N N N N N N V x o N.N.N.",
", M.y.c.c.c.i.i.h + M V V V N N N N N N N N M v v v v M M o N.N.",
", M.4.w.6.6.6.2.+ B V N N N N N N N N M v v v v v v v v M M X N.",
", M.y.c.c.c.i.j s V N N N N N N v v v v v v v v v x n %.$.>.d N.",
", M.y.c.c.l.i.i B V N N M v v v v v v v v n &.5.;.,.-.*.*.-.=.X ",
", M.y.c.c.l.i.+ a.M v v v v v v v v v 7.<.<.<.,.,.-.*.*.*.#.:.X ",
", M.4.w.6.6.4.+ a.v v v v v v c c c b k.<.<.,.,.-.*.*.*.#.@.>.X ",
", M.y.c.c.l.i.X p.M v v c c c c c c W j.r.,.,.-.*.*.*.#.+.*.=.X ",
", M.y.c.c.l.u.X m V c c c c c c c z _ _ q.,.-.*.*.*.#.+.+.-.O.X ",
", M.y.c.c.i.i.O t d.B c c c u y y I ^ ^ R -.*.*.*.#.+.+.-.r.| X ",
", M.4.0.6.6.4.& q r d.M y y y y p ! ! ~ ~ -.*.*.#.+.+.-.r.} 3 . ",
", M.w.c.l.i.i.f 7 e 9 s.d.v y y K L L L Q J *.#.@.-.z.t.'  .@ N.",
", M.w.c.l.i.i.8.X e 9 8 k s.d.E Q L L G L P :.<.x.r.o.` [ 4 X N.",
", M.w.c.l.i.i.y.1 O e 9 8 8 t T / ) h.j.h.( t.e...` ` [ 4 X N.N.",
", M.i.6.6.6.6.1.6 f O e t 9 8 * Z Z Z A Z C ` ` ` ]  .4 X N.N.N.",
", y.M.M.M.M.M.M.m.b.9.+ + e t - F A A Z A A ]  .X.{ # X N.N.N.N.",
"N., , , , , , , , , > ; $ O + = S D H H H D 4 < % X N.N.N.N.N.N.",
"N.N.N.N.N.N.N.N.N.N.N.N.N.N.N.. . X X X X X .   N.N.N.N.N.N.N.N.",
"N.N.N.N.N.N.N.N.N.N.N.N.N.N.N.N.N.N.N.N.N.N.N.N.N.N.N.N.N.N.N.N."
};
