/* XPM */
static char *gnome_gnumeric[] = {
/* columns rows colors chars-per-pixel */
"32 32 147 2",
"   c #330000",
".  c #440000",
"X  c #550000",
"o  c #660000",
"O  c #661111",
"+  c #771111",
"@  c #551122",
"#  c #661122",
"$  c #442222",
"%  c #662222",
"&  c #772222",
"*  c #773333",
"=  c #775511",
"-  c #666600",
";  c #554433",
":  c #667722",
">  c #777722",
",  c #443355",
"<  c #553355",
"1  c #114477",
"2  c #444444",
"3  c #555544",
"4  c #555555",
"5  c #665555",
"6  c #554466",
"7  c #554477",
"8  c #555577",
"9  c #775577",
"0  c gray40",
"q  c #776666",
"w  c #777777",
"e  c #990000",
"r  c #881111",
"t  c #AA1111",
"y  c #992222",
"u  c #883333",
"i  c #AA2222",
"p  c #BB2222",
"a  c #AA3333",
"s  c #BB3333",
"d  c #DD2222",
"f  c #DD3333",
"g  c #CC4433",
"h  c #884444",
"j  c #995555",
"k  c #BB4444",
"l  c #BB5566",
"z  c #886666",
"x  c #996677",
"c  c #997777",
"v  c #AA6677",
"b  c #CC4444",
"n  c #DD4444",
"m  c #CC5544",
"M  c #DD4455",
"N  c #CC5555",
"B  c #DD5555",
"V  c #EE4444",
"C  c #EE5555",
"Z  c #DD6655",
"A  c #CC5566",
"S  c #DD6666",
"D  c #DD7766",
"F  c #EE6666",
"G  c #FF6666",
"H  c #EE7777",
"J  c #448800",
"K  c #449900",
"L  c #559900",
"P  c #558811",
"I  c #559911",
"U  c #668833",
"Y  c #669933",
"T  c #66AA33",
"R  c #77AA33",
"E  c #77CC22",
"W  c #778877",
"Q  c #999933",
"!  c #88CC33",
"~  c #889955",
"^  c #99AA55",
"/  c #AAAA44",
"(  c #999977",
")  c #BB9966",
"_  c #BB8877",
"`  c #BBAA66",
"'  c #AABB66",
"]  c #88CC44",
"[  c #99CC44",
"{  c #88DD44",
"}  c #99DD55",
"|  c #AADD66",
" . c #AACC77",
".. c #AADD77",
"X. c #224488",
"o. c #335588",
"O. c #3366AA",
"+. c #445588",
"@. c #446699",
"#. c #666699",
"$. c #776699",
"%. c #667799",
"&. c #4477AA",
"*. c #5577AA",
"=. c #5577BB",
"-. c #7777AA",
";. c #997799",
":. c #5588AA",
">. c #5588BB",
",. c #6688AA",
"<. c #7788AA",
"1. c #7799AA",
"2. c #6688BB",
"3. c #7788BB",
"4. c #6699BB",
"5. c #7799BB",
"6. c #6699CC",
"7. c #888888",
"8. c #998888",
"9. c #889988",
"0. c #999988",
"q. c gray60",
"w. c #AA8888",
"e. c #AA9999",
"r. c #99AA99",
"t. c #AAAA99",
"y. c #BBAA99",
"u. c #8888AA",
"i. c #9988AA",
"p. c #8899BB",
"a. c #9999BB",
"s. c #AAAAAA",
"d. c #BBAAAA",
"f. c #BBBBAA",
"g. c #BBBBBB",
"h. c #EE8888",
"j. c #EE9999",
"k. c #CCAAAA",
"l. c #BBCC88",
"z. c #CCCCBB",
"x. c #88AACC",
"c. c gray80",
"v. c #DDDDCC",
"b. c #DDDDDD",
"n. c #EEEEEE",
"m. c gray100",
"M. c None",
/* pixels */
"M.4 4 4 4 4 4 4 4 4 4 4 4 4 4 4 4 4 4 4 4 4 4 4 4 4 M.M.M.M.M.M.",
"4 s.n.m.m.m.m.m.m.m.m.m.m.m.m.m.m.m.m.m.m.m.m.m.n.s.4 M.M.M.M.M.",
"4 n.s.s.s.s.s.s.7.s.s.s.s.s.s.s.7.s.s.s.s.s.s.s.s.n.4 M.M.M.M.M.",
"4 m.t.b.b.b.v.c.q.c.c.c.c.c.c.c.q.c.c.c.c.c.c.c.s.m.4 M.M.M.M.M.",
"4 m.t.v.v.c.c.c.q.c.c.c.c.c.c.c.q.c.c.c.c.c.c.c.t.m.4 M.M.M.M.M.",
"4 m.t.c.c.c.c.c.q.z.z.z.z.z.z.z.q.z.z.z.z.z.z.z.q.m.4 M.M.M.M.M.",
"4 m.q.c.c.c.z.g.7.g.g.g.g.g.g.g.9.g.g.g.g.g.g.g.q.m.4 M.M.M.M.M.",
"4 m.w 7.7.7.w w 0 7.7.7.7.7.7.7.w 7.7.7.7.7.7.7.7.m.4 M.M.M.M.M.",
"4 m.r.c.c.z.g.g.7.b.b.b.b.b.b.b.s.b.b.b.b.b.b.b.s.m.4 M.M.M.M.M.",
"4 m.q.c.c.z.g.g.7.b.b.b.b.b.b.b.s.b.b.b.b.b.b.b.s.m.4 M.M.M.M.M.",
"4 m.q.c.c.g.g.g.7.b.b.b.b.b.k.w.h & o o + u j w.8.m.4 M.M.M.M.M.",
"4 m.7.q.q.q.0.7.w s.s.s.c O r s b B F F F B b a + u ; M.M.M.M.M.",
"4 m.q.c.c.g.g.g.7.b.d.& y B F F G G G G F F F F F n r o M.M.M.M.",
"4 m.q.c.z.g.g.g.7.y.+ B F G G G G F F F F F C C C F F B o M.M.M.",
"4 m.q.c.z.g.g.g.z + F F G F F F F F F C C C C C C C C F B o M.M.",
"4 m.7.q.q.q.0.7.+ F F F F F F F C C C C C C C C C V V V F S o M.",
"4 m.q.c.z.g.g.c k H F F C C C C C C C C C V V V V M l x $.2.9 M.",
"4 m.q.c.g.g.g.* S F C C C C C C C C V V M A v ;.<.2.>.>.=.>.-.o ",
"4 m.q.z.g.g.g.+ h.C C C C C V V V V V _ 6.6.6.4.2.>.>.=.&.&.2.o ",
"4 m.7.q.q.q.7.+ h.C C V V V V V n n Z l.6.6.4.2.>.>.=.&.&.&.2.o ",
"4 m.q.z.g.g.d.o H C V V n n n n n f ` ..1.4.2.>.>.=.&.&.&.*.,.o ",
"4 m.q.z.g.g.s.o N H n n n f f f f m | | ( 2.>.>.=.&.&.&.O.2.%.o ",
"4 m.q.z.g.g.s.o i h.F f f f f f f / } } ^ >.>.=.&.&.&.O.:.<.+.o ",
"4 m.7.q.q.0.7.% r t h.F f f f d g { { { [ :.=.&.&.&.O.>.3.o., X ",
"4 m.q.g.g.g.s.z + t t h.h.B d d Q ! ! ! ! W &.&.&.:.5.i.X.o.# M.",
"3 m.q.g.g.g.s.0.o y t e s h.j.D ] ! E E E ~ 2.2.x.p.#.1 o.6 o M.",
"3 m.q.g.g.g.f.t.5 o y t e e p ) '  ....... .a.u.+.1 1 o.7 X M.M.",
"4 n.f.q.q.0.7.7.0 q o y i t e - K K K L K J 1 1 X.o.@.6 X M.M.M.",
"4 q.n.m.m.m.m.m.n.b.e.O + y a > I I K K K P o.o.@.8 @ X M.M.M.M.",
"M.4 4 3 3 3 3 3 3 2 2 2 $ X o = : Y T R T U 8 < @ X   M.M.M.M.M.",
"M.M.M.M.M.M.M.M.M.M.M.M.M.M.M.. X X X o o X X . M.M.M.M.M.M.M.M.",
"M.M.M.M.M.M.M.M.M.M.M.M.M.M.M.M.M.M.M.M.M.M.M.M.M.M.M.M.M.M.M.M."
};
