/* XPM */
static char * flub_xpm[] = {
"32 32 6 1",
" 	c None",
".	c #FFFFFF",
"+	c #0000FF",
"@	c #00FFFF",
"#	c #FF0000",
"$	c #FFFF00",
"                                ",
"  .........................     ",
" ..........................     ",
" .. .   .     .      .    .     ",
" ........ ....... ....... .     ",
" ..                       .     ",
" .. .+... ....... ....... .     ",
" .. ..... ....... ....... .     ",
" .. ..@.. ....... ....... .     ",
" .. .. .  ....... ....... .     ",
" ..                       .     ",
" ........ ....... ....... .     ",
" .. ...+. ....... ....... .     ",
" .. . ... ....##.  ...... .     ",
" ..   .   .########### .. .     ",
" .. ...   #############   .     ",
" .......################. .     ",
" .. @..###################.     ",
" .. . .##################.#     ",
" ..   .##################++     ",
" .. . .##########.++++++++++    ",
" .. . .##########$++++++++++    ",
" .. . .#########$$$+++++++++    ",
" .. . ...######$$$$$+++++++     ",
" ..   ...#####$$$$$$++++++      ",
" ........####$$$$$$$$++++       ",
"  ....  ...#$$$$$$$$$+++        ",
"          ....$$$$$$$$          ",
"              .$$$$$            ",
"                                ",
"                                ",
"                                "};
