/* XPM */
static char * column_unhide_24_xpm[] = {
"24 24 14 1",
" 	c None",
".	c #000000",
"+	c #330000",
"@	c #FFFFFF",
"#	c #E4E4E4",
"$	c #FCFCFC",
"%	c #F7F7F1",
"&	c #E1E1D3",
"*	c #ECECEC",
"=	c #B8B8B8",
"-	c #CCCC98",
";	c #ABAB9A",
">	c #CCCC97",
",	c #7E7E7C",
"                        ",
"                        ",
"         .  .  .        ",
"          . . .         ",
"                        ",
"                        ",
"      ......+......     ",
"      .@@#.$%&.@@#.     ",
"      .@*=.%-;.@*=.     ",
"      .@*=.%>;.@*=.     ",
"      .@*=.%>;.@*=.     ",
"      .@*=.%>;.@*=.     ",
"      .@*=.%>;.@*=.     ",
"      .@*=.%>;.@*=.     ",
"      .@*=.%>;.@*=.     ",
"      .@*=.%>;.@*=.     ",
"      .@*=.%-;.@*=.     ",
"      .#==.&;,.#==.     ",
"      .............     ",
"                        ",
"                        ",
"          . . .         ",
"         .  .  .        ",
"                        "};
