/* XPM */
static char * center_across_selection_24_xpm[] = {
"24 24 17 1",
" 	c None",
".	c #000000",
"+	c #FFFFFF",
"@	c #E4E4E4",
"#	c #ECECEC",
"$	c #A7A7A7",
"%	c #B8B8B8",
"&	c #585856",
"*	c #F3F3F3",
"=	c #D2D2D2",
"-	c #6B6B6A",
";	c #161616",
">	c #363636",
",	c #3F3F3F",
"'	c #50504E",
")	c #A8A8A8",
"!	c #7E7E7C",
"                        ",
"                        ",
"                        ",
"                        ",
"....................... ",
".+++++++++@++++++++++@. ",
".+#######$..$########%. ",
".+##&#####%*.#####&=#%. ",
".+#-;>>,#$...##,>>;-#%. ",
".+##'####.)*.#####'=#%. ",
".+#######$...########%. ",
".@%%%%%%%%!@)%%%%%%%%!. ",
"....................... ",
".+++++++++@.+++++++++@. ",
".+########%.+########%. ",
".+########%.+########%. ",
".+########%.+########%. ",
".+########%.+########%. ",
".@%%%%%%%%%.*%%%%%%%%%. ",
"....................... ",
"                        ",
"                        ",
"                        ",
"                        "};
