/* XPM */
static char * insert_shaped_component_24_xpm[] = {
"24 24 207 2",
"  	c None",
". 	c #000000",
"+ 	c #320101",
"@ 	c #980101",
"# 	c #F57777",
"$ 	c #F37676",
"% 	c #F86B6B",
"& 	c #7B0000",
"* 	c #090000",
"= 	c #010000",
"- 	c #410101",
"; 	c #EA7979",
"> 	c #E86B6B",
", 	c #F24C4C",
"' 	c #F33838",
") 	c #F24646",
"! 	c #F35959",
"~ 	c #F62525",
"{ 	c #5B0000",
"] 	c #F0F0F0",
"^ 	c #B7B7B7",
"/ 	c #FFFFFF",
"( 	c #E4E4E4",
"_ 	c #E95151",
": 	c #F55757",
"< 	c #EB4848",
"[ 	c #F71A1A",
"} 	c #F61818",
"| 	c #F32525",
"1 	c #F13D3D",
"2 	c #F43131",
"3 	c #A50101",
"4 	c #AF7373",
"5 	c #A3A3A3",
"6 	c #EAEAEA",
"7 	c #ECECEC",
"8 	c #B9B9B9",
"9 	c #6C0000",
"0 	c #F73939",
"a 	c #EF4040",
"b 	c #ED2E2E",
"c 	c #F90909",
"d 	c #F80303",
"e 	c #F41010",
"f 	c #F01E1E",
"g 	c #EC1212",
"h 	c #670000",
"i 	c #857B7B",
"j 	c #A5A5A5",
"k 	c #E9E9E9",
"l 	c #5E0202",
"m 	c #F43737",
"n 	c #F12727",
"o 	c #F20909",
"p 	c #ED2222",
"q 	c #F70909",
"r 	c #FA0202",
"s 	c #F30A0A",
"t 	c #E80808",
"u 	c #DA0505",
"v 	c #625D5D",
"w 	c #787878",
"x 	c #999999",
"y 	c #6B6B6B",
"z 	c #9D0202",
"A 	c #F10606",
"B 	c #F40303",
"C 	c #F50505",
"D 	c #F30808",
"E 	c #F50101",
"F 	c #E60505",
"G 	c #D70505",
"H 	c #A20000",
"I 	c #7E6C6C",
"J 	c #949292",
"K 	c #BCBCBC",
"L 	c #D7D7D7",
"M 	c #A8A8A8",
"N 	c #C20101",
"O 	c #EF1C1C",
"P 	c #EE0606",
"Q 	c #F20505",
"R 	c #F40404",
"S 	c #F20303",
"T 	c #E50202",
"U 	c #D60404",
"V 	c #D10303",
"W 	c #847C7C",
"X 	c #ABABAB",
"Y 	c #D0D0D0",
"Z 	c #B1B1B1",
"` 	c #D3D3D3",
" .	c #D5D5D5",
"..	c #950101",
"+.	c #EC0E0E",
"@.	c #EB0808",
"#.	c #EE0707",
"$.	c #EF0404",
"%.	c #E60303",
"&.	c #DB0303",
"*.	c #D50505",
"=.	c #9C0000",
"-.	c #886464",
";.	c #969191",
">.	c #C3C3C3",
",.	c #DEDEDE",
"'.	c #989898",
").	c #B0B0B0",
"!.	c #A4A4A4",
"~.	c #ED0808",
"{.	c #E90909",
"].	c #EA0808",
"^.	c #EB0606",
"/.	c #E40303",
"(.	c #D40303",
"_.	c #C00909",
":.	c #765353",
"<.	c #807B7B",
"[.	c #9A9A9A",
"}.	c #A6A6A6",
"|.	c #878787",
"1.	c #9B9B9B",
"2.	c #959595",
"3.	c #6E6E6E",
"4.	c #EA0909",
"5.	c #E70A0A",
"6.	c #E70909",
"7.	c #E40505",
"8.	c #D70404",
"9.	c #CE0D0D",
"0.	c #9E0000",
"a.	c #A58383",
"b.	c #C3BEBE",
"c.	c #DFDFDF",
"d.	c #AAAAAA",
"e.	c #E8E8E8",
"f.	c #BBBBBB",
"g.	c #850000",
"h.	c #E40B0B",
"i.	c #E40A0A",
"j.	c #E20606",
"k.	c #DB0606",
"l.	c #E10B0B",
"m.	c #C62727",
"n.	c #910000",
"o.	c #CCC3C3",
"p.	c #E2E2E2",
"q.	c #B8B8B8",
"r.	c #1B0000",
"s.	c #ED6969",
"t.	c #E11111",
"u.	c #DF0707",
"v.	c #DC0808",
"w.	c #DF0C0C",
"x.	c #E80A0A",
"y.	c #DB2F2F",
"z.	c #E0DCDC",
"A.	c #920404",
"B.	c #A80101",
"C.	c #E43D3D",
"D.	c #DE0B0B",
"E.	c #DA0D0D",
"F.	c #DA0C0C",
"G.	c #DE0E0E",
"H.	c #C93333",
"I.	c #560000",
"J.	c #A3A1A1",
"K.	c #848484",
"L.	c #747474",
"M.	c #190202",
"N.	c #B90202",
"O.	c #E96D6D",
"P.	c #DE2020",
"Q.	c #DA1515",
"R.	c #D41414",
"S.	c #D51212",
"T.	c #D70E0E",
"U.	c #DE0C0C",
"V.	c #7B0101",
"W.	c #DBD8D8",
"X.	c #080000",
"Y.	c #760000",
"Z.	c #EE4242",
"`.	c #E24949",
" +	c #DC3232",
".+	c #D82424",
"++	c #D51616",
"@+	c #CA0D0D",
"#+	c #B73030",
"$+	c #CFCCCC",
"%+	c #EBEBEB",
"&+	c #BFB4B4",
"*+	c #680000",
"=+	c #E60B0B",
"-+	c #E01414",
";+	c #DB0E0E",
">+	c #C01818",
",+	c #7D7777",
"'+	c #A19F9F",
")+	c #7A7A7A",
"!+	c #030000",
"~+	c #0D0101",
"{+	c #AB0303",
"]+	c #DA0707",
"^+	c #B40606",
"/+	c #460303",
"(+	c #080101",
"                                                ",
"                  . . .                         ",
"                  .   .                         ",
"                  . . .                         ",
"        . . .           .                       ",
"        .   .     . . . . .                     ",
"        . . . + @ # # $ % & * = . . . . . . .   ",
"          . - ; > , ' ) ! ~ { . ] ^ / / / ( .   ",
"          . _ : < [ } | 1 2 3 4 . 5 6 7 7 8 .   ",
"        . 9 0 a b c d e f g h i j . . . k ^ .   ",
"        l m n o p q r s t u . v w . 7 . x y .   ",
"      . z ' A B C D E F G H I J K . . . L M .   ",
"      . N O P Q R S T U V . W X Y X Z `  .5 .   ",
"    .   ..+.@.#.$.%.&.*.=.-.;.>.,.'.).!.).M .   ",
"    .   . ~.{.].^./.(._.. :.<.[.}.|.1.2.x 3..   ",
"  . . .   { 4.5.6.7.8.9.0.a.b.c.6 d.k e.k f..   ",
"  .   .     g.h.i.j.k.l.m.n.o.p.6 X 7 7 7 q..   ",
"  . . .     r.s.t.u.v.w.x.y.h z.6 X 7 7 7 K .   ",
"            A.B.C.D.E.F.G.{.H.I.J.K.M X X L..   ",
"            M.N.O.P.Q.R.S.T.U.V.W.M 7 7 7 q..   ",
"            X.Y.Z.`. +.+++@+#+I.$+j %+7 7 K .   ",
"            = &+*+=+-+Q.;+>+. ,+'+)+^ K f.5 .   ",
"            . !+~+{+]+4.^+/+(+= . . . . . . .   ",
"                  . . . .                       "};
