/* XPM */
static char * show_detail_24_xpm[] = {
"24 24 42 1",
" 	c None",
".	c #000000",
"+	c #FFFFFF",
"@	c #B7D3E5",
"#	c #6F9DBA",
"$	c #B3D0E2",
"%	c #B1CEE1",
"&	c #AFCDE0",
"*	c #AECCDF",
"=	c #ACCADE",
"-	c #AAC9DD",
";	c #A8C8DC",
">	c #A6C6DB",
",	c #A5C5DA",
"'	c #A3C4D9",
")	c #A1C2D8",
"!	c #9FC1D7",
"~	c #9DC0D5",
"{	c #9CBED4",
"]	c #9ABDD3",
"^	c #98BCD2",
"/	c #96BAD1",
"(	c #94B9D0",
"_	c #92B7CF",
":	c #F0F0BF",
"<	c #91B6CE",
"[	c #DEDD6F",
"}	c #8FB5CD",
"|	c #8DB3CC",
"1	c #8BB2CB",
"2	c #89B1CA",
"3	c #88AFC9",
"4	c #86AEC7",
"5	c #84ADC6",
"6	c #82ABC5",
"7	c #80AAC4",
"8	c #7FA9C3",
"9	c #7DA7C2",
"0	c #7BA6C1",
"a	c #79A5C0",
"b	c #77A3BF",
"c	c #76A2BE",
"                        ",
" ...................... ",
" .+@@@@@@@@@@@@@@@@@@#. ",
" .@$%&*=-;>,')!~{]^/(#. ",
" .@%&*....,')!......_#. ",
" .@&*=.::.')!~{]^/(_<#. ",
" .@*...:[...~{]^/...}#. ",
" .@=.:::[::.{]^/(_<}|#. ",
" .@-.:[[[[[.]^/(_...1#. ",
" .@;...:[...^/(_<}|12#. ",
" .@>,'.:[.]^/(......3#. ",
" .@,')....^/(_<}|1234#. ",
" .@')!~{]^/(_<}|1...5#. ",
" .@)!~{]^/(_<}|123456#. ",
" .@!~{]^/(_<}|123...7#. ",
" .@~{]^/(_<}|12345678#. ",
" .@{]^/(_<}|12......9#. ",
" .@]^/(_<}|1234567890#. ",
" .@^/(_<}|1234567...a#. ",
" .@/(_<}|1234567890ab#. ",
" .@(_<}|1234567890abc#. ",
" .@###################. ",
" ...................... ",
"                        "};
