/* XPM */
static char * merge_cells_24_xpm[] = {
"24 24 8 1",
" 	c None",
".	c #000000",
"+	c #FFFFFF",
"@	c #E4E4E4",
"#	c #ECECEC",
"$	c #B8B8B8",
"%	c #858585",
"&	c #E9E9E9",
"                        ",
"                        ",
"                        ",
"                        ",
"                        ",
"                        ",
"   ..................   ",
"   .++++++++@++++++@.   ",
"   .+#######$######$.   ",
"   .+#######$######$.   ",
"   .+#######$######$.   ",
"   .@$$$$$$$%$$$$$$%.   ",
"   .+#######$######$.   ",
"   .+#######$######$.   ",
"   .+#######$######$.   ",
"   .&$$$$$$$%$$$$$$%.   ",
"   ..................   ",
"                        ",
"                        ",
"                        ",
"                        ",
"                        ",
"                        ",
"                        "};
