/* XPM */
static char * insert_component_24_xpm[] = {
"24 24 116 2",
"  	c None",
". 	c #000000",
"+ 	c #FFFFFF",
"@ 	c #B1B1B1",
"# 	c #FBFBFB",
"$ 	c #BABABA",
"% 	c #E4E4E4",
"& 	c #CECECE",
"* 	c #E1E1E1",
"= 	c #ECECEC",
"- 	c #ADADAD",
"; 	c #B9B9B9",
"> 	c #E9E9D6",
", 	c #ECECDA",
"' 	c #E9E9D5",
") 	c #E2E2C6",
"! 	c #E1E1C4",
"~ 	c #DADAB5",
"{ 	c #B4B487",
"] 	c #9A9A9A",
"^ 	c #C6C6C6",
"/ 	c #E7E7E7",
"( 	c #ABABAB",
"_ 	c #B8B8B8",
": 	c #ECECDD",
"< 	c #E3E3C8",
"[ 	c #DFDFC0",
"} 	c #E0E0C3",
"| 	c #DDDDBD",
"1 	c #D5D5AB",
"2 	c #A3A37A",
"3 	c #484848",
"4 	c #434343",
"5 	c #7F7F7F",
"6 	c #A8A8A8",
"7 	c #707070",
"8 	c #6B6B4F",
"9 	c #D7D7AF",
"0 	c #24241B",
"a 	c #EDEDDF",
"b 	c #E4E4CC",
"c 	c #EAEAD7",
"d 	c #E6E6D0",
"e 	c #D6D6AD",
"f 	c #CCCC99",
"g 	c #E5E5CC",
"h 	c #E2E2C7",
"i 	c #272727",
"j 	c #DEDEDE",
"k 	c #BCBCBC",
"l 	c #D7D7BE",
"m 	c #DEDEBD",
"n 	c #DEDEBF",
"o 	c #DDDDBB",
"p 	c #EEEEDD",
"q 	c #EBEBD7",
"r 	c #DFDFC1",
"s 	c #D3D3A8",
"t 	c #DCDCBA",
"u 	c #DBDBB9",
"v 	c #E0E0C1",
"w 	c #9F9F76",
"x 	c #1C1C1C",
"y 	c #C3C3C3",
"z 	c #6A6A4E",
"A 	c #BEBE8E",
"B 	c #A8A87E",
"C 	c #111111",
"D 	c #EBEBD9",
"E 	c #D4D4AA",
"F 	c #A7A77D",
"G 	c #5D5D44",
"H 	c #191919",
"I 	c #B5B5B5",
"J 	c #E5E5E5",
"K 	c #141414",
"L 	c #494949",
"M 	c #8B8B8B",
"N 	c #A5A5A5",
"O 	c #737373",
"P 	c #C4C49C",
"Q 	c #A0A078",
"R 	c #616161",
"S 	c #828282",
"T 	c #8E8E8E",
"U 	c #D4D4D4",
"V 	c #EBEBEB",
"W 	c #626262",
"X 	c #A2A2A2",
"Y 	c #C5C5C5",
"Z 	c #CCCCCC",
"` 	c #9E9E9E",
" .	c #EAEAEA",
"..	c #8A8A8A",
"+.	c #7B7B7B",
"@.	c #7E7E7E",
"#.	c #5D5D5D",
"$.	c #808080",
"%.	c #8D8D8D",
"&.	c #DFDFDF",
"*.	c #E9E9E9",
"=.	c #AAAAAA",
"-.	c #969696",
";.	c #909090",
">.	c #999999",
",.	c #868686",
"'.	c #939393",
").	c #A3A3A3",
"!.	c #A6A6A6",
"~.	c #858585",
"{.	c #747474",
"].	c #DDDDDD",
"^.	c #A9A9A9",
"/.	c #BFBFBF",
"(.	c #757575",
"_.	c #BBBBBB",
"                                                ",
"                                                ",
"                                                ",
"                                                ",
"              . . . . . . . . . . . . . . . . . ",
"              . + + + + @ # # + + + $ + + + % . ",
"          . . . . . . . . . & * = = - = = = ; . ",
"          . > , ' ) ! ~ { . ] ^ / = ( = = = _ . ",
"  . . .   . : < [ } | 1 2 . 3 . . 4 5 6 ( ( 7 . ",
". 8 ' 9 . 0 a b c d e f f 0 . g h 8 i j = = k . ",
". l m n o o p q r e s 1 t t u v f w x y / = k . ",
". z A B . C D E e f f f F . . f { G H I J = k . ",
"  . . .   . m f f f f f F . 4 . . K L M N ( O . ",
"          . P F F F F F Q . R S T M 5 U V = k . ",
"          . . . . . . . . . W X Y Z `  .= = _ . ",
"              . ..+.+.@.#.$.%._ &.*.=.= = = k . ",
"              . -.M ;.>.+.T ,.'.).!.~.6 ( ( {.. ",
"              . + = = = ( J ].&./ = ( = = = _ . ",
"              . + = = = 6 = V V = = ^.= = = k . ",
"              . *.y y /.(.k k k k k @._ k _.).. ",
"              . . . . . . . . . . . . . . . . . ",
"                                                ",
"                                                ",
"                                                "};
