/* XPM */
static char * ungroup_24_xpm[] = {
"24 24 117 2",
"  	c None",
". 	c #000000",
"+ 	c #272D31",
"@ 	c #8EA3B2",
"# 	c #B7D2E5",
"$ 	c #B4D1E3",
"% 	c #8AA0AF",
"& 	c #252C30",
"* 	c #738490",
"= 	c #B5D2E4",
"- 	c #B2CFE2",
"; 	c #AFCDE0",
"> 	c #ACCBDE",
", 	c #A9C9DD",
"' 	c #687D8A",
") 	c #B4D0E3",
"! 	c #B1CEE1",
"~ 	c #AECCDF",
"{ 	c #ABCADD",
"] 	c #A8C7DC",
"^ 	c #A5C5DA",
"/ 	c #A2C3D8",
"( 	c #647987",
"_ 	c #CCE5CC",
": 	c #B5D1E3",
"< 	c #A9C8DC",
"[ 	c #A6C6DB",
"} 	c #A3C4D9",
"| 	c #A0C2D7",
"1 	c #9DBFD5",
"2 	c #9ABDD4",
"3 	c #20282D",
"4 	c #AABFAA",
"5 	c #B6D2E4",
"6 	c #B3D0E2",
"7 	c #B0CEE1",
"8 	c #ADCCDF",
"9 	c #AAC9DD",
"0 	c #A7C7DB",
"a 	c #A4C5DA",
"b 	c #A1C3D8",
"c 	c #9EC0D6",
"d 	c #9BBED4",
"e 	c #98BCD3",
"f 	c #95BAD1",
"g 	c #718EA1",
"h 	c #93BC93",
"i 	c #A0C1D7",
"j 	c #9ABDD3",
"k 	c #97BBD2",
"l 	c #94B8D0",
"m 	c #91B6CE",
"n 	c #8EB4CC",
"o 	c #98BCD2",
"p 	c #95B9D1",
"q 	c #92B7CF",
"r 	c #8FB5CD",
"s 	c #8CB3CB",
"t 	c #89B1C9",
"u 	c #96BAD1",
"v 	c #93B8D0",
"w 	c #90B6CE",
"x 	c #8DB4CC",
"y 	c #8AB1CA",
"z 	c #87AFC8",
"A 	c #85ADC7",
"B 	c #889988",
"C 	c #92B7CE",
"D 	c #8CB2CB",
"E 	c #89B0C9",
"F 	c #86AEC7",
"G 	c #83ACC6",
"H 	c #80AAC4",
"I 	c #7E98A8",
"J 	c #9FC1D6",
"K 	c #9CBED5",
"L 	c #99BCD3",
"M 	c #93B8CF",
"N 	c #90B6CD",
"O 	c #8DB3CC",
"P 	c #84ADC6",
"Q 	c #81AAC5",
"R 	c #7EA8C3",
"S 	c #5F8196",
"T 	c #21292D",
"U 	c #94B9D0",
"V 	c #91B7CE",
"W 	c #8BB2CB",
"X 	c #88B0C9",
"Y 	c #85AEC7",
"Z 	c #82ABC5",
"` 	c #7FA9C4",
" .	c #7CA7C2",
"..	c #7AA5C0",
"+.	c #192328",
"@.	c #5E7583",
"#.	c #93B7CF",
"$.	c #90B5CD",
"%.	c #8DB3CB",
"&.	c #84ACC6",
"*.	c #81AAC4",
"=.	c #7BA6C1",
"-.	c #78A3BF",
";.	c #496577",
">.	c #597180",
",.	c #8BB2CA",
"'.	c #7FA9C3",
").	c #79A4C0",
"!.	c #76A2BE",
"~.	c #486576",
"{.	c #1C252B",
"].	c #66869A",
"^.	c #7DA8C2",
"/.	c #7AA5C1",
"(.	c #77A3BF",
"_.	c #5A7D93",
":.	c #182228",
"                                                ",
"                                                ",
"                                                ",
"                                                ",
"                        . . . . . .             ",
"                    . + @ # # # $ % & .         ",
"                  . * # # # = - ; > , ' .       ",
"          . .   . * # # # ) ! ~ { ] ^ / ( .     ",
"        . _ .   + # # : - ; > < [ } | 1 2 3     ",
"      . _ 4 . . @ 5 6 7 8 9 0 a b c d e f g .   ",
"    . _ 4 h . . . . . . . . . i 1 j k l m n .   ",
"  . _ 4 h h _ _ _ _ _ _ _ _ . d o p q r s t .   ",
"  . 4 h h h h h h h h h h h . u v w x y z A .   ",
"    . B h h . . . . . . . . . C r D E F G H .   ",
"      . B h . . I J K L u M N O y z P Q R S .   ",
"        . B .   T 2 k U V n W X Y Z `  ...+.    ",
"          . .   . @.#.$.%.y z &.*.R =.-.;..     ",
"                  . >.,.X A Z '. .).!.~..       ",
"                    . {.].H ^./.(._.:..         ",
"                        . . . . . .             ",
"                                                ",
"                                                ",
"                                                ",
"                                                "};
