/* XPM */
static char * graph_guru_24_xpm[] = {
"24 24 43 1",
" 	c None",
".	c #000000",
"+	c #D0D1BC",
"@	c #AFB28A",
"#	c #D1D3BD",
"$	c #818365",
"%	c #BDDEFF",
"&	c #99CCFF",
"*	c #679ACD",
"=	c #FFD9D9",
"-	c #FFCCCC",
";	c #C01C24",
">	c #9BBCDD",
",	c #6699CC",
"'	c #003366",
")	c #D15C61",
"!	c #4E1E15",
"~	c #9DBEDE",
"{	c #D36368",
"]	c #4D1E15",
"^	c #9EBEDE",
"/	c #D5686D",
"(	c #FFD98D",
"_	c #FFCC66",
":	c #FFA213",
"<	c #FFBC59",
"[	c #FF9900",
"}	c #333333",
"|	c #FFBE5D",
"1	c #FFBE5E",
"2	c #40423C",
"3	c #4B4C46",
"4	c #585952",
"5	c #666960",
"6	c #B5B7AE",
"7	c #B5B78C",
"8	c #585A52",
"9	c #FFBD5B",
"0	c #666860",
"a	c #96B9DC",
"b	c #BEC0B7",
"c	c #9A9E7E",
"d	c #D0D4C4",
"                        ",
"                        ",
"    ..                  ",
"   .+.                  ",
"  .+@.                  ",
" .#@@.                  ",
" .@@@.         .....    ",
" .@@$...      .%&&&*.   ",
" .@=---;.     .>,,,'.   ",
" .@);;;!.     .~,,,'.   ",
" .@{;;;].......^,,,'.   ",
" .@/;;;].(___:.~,,,'.   ",
" .@{;;;].<[[[}.~,,,'.   ",
" .@{;;;].|[[[}.~,,,'.   ",
" .@{;;;].1[[[}.~,,,'.   ",
" .@{;;;].|[[[}.~,,,'.   ",
" .@{;;;].|[[[}.~,,,'.   ",
" .@{;;;].|[[[}.~,,,'.   ",
" .@{;;;].|[[[}.^,,,'... ",
" .@/;;;!2|[[[}3~,,,'456.",
" .7/;;;849[[[00a,,,00b. ",
" .cdddddddddddddddddd.  ",
" ....................   ",
"                        "};
