/* XPM */
static char * i16_copy_xpm[] = {
"16 16 58 1",
" 	c None",
".	c #000000",
"+	c #8E8E8E",
"@	c #E3E3E3",
"#	c #696969",
"$	c #F1F0E1",
"%	c #ECE9D5",
"&	c #EDEBD8",
"*	c #2E2D29",
"=	c #7E7D76",
"-	c #5D5C58",
";	c #53534F",
">	c #21211E",
",	c #79776C",
"'	c #EBE7D3",
")	c #8C866C",
"!	c #A8A597",
"~	c #33312E",
"{	c #818181",
"]	c #EDECE9",
"^	c #BFBFBF",
"/	c #ACABAA",
"(	c #5B5B5B",
"_	c #252422",
":	c #4D4833",
"<	c #FFFFFF",
"[	c #474747",
"}	c #404040",
"|	c #444444",
"1	c #B9B9B9",
"2	c #838383",
"3	c #7B7B7B",
"4	c #585858",
"5	c #B7B7B7",
"6	c #363636",
"7	c #757575",
"8	c #5F5F5F",
"9	c #686868",
"0	c #616161",
"a	c #4F4F4F",
"b	c #494949",
"c	c #979797",
"d	c #2B2B2B",
"e	c #2F2F2F",
"f	c #7F7F7F",
"g	c #6D6D6D",
"h	c #595959",
"i	c #716E67",
"j	c #C1B485",
"k	c #A39870",
"l	c #796E50",
"m	c #868686",
"n	c #6D6240",
"o	c #DEDEDE",
"p	c #6A603C",
"q	c #685C3A",
"r	c #635935",
"s	c #443B1F",
"        ...     ",
"    ....+@#.... ",
"   .$%&*=-;>,').",
"   .!.~{]^/(_.:.",
"   ..<<[}}}|1<..",
"   ..<2<3456}<..",
"   ..<<<<<<<<<..",
" .........789<..",
".<<<<<<<<<.<<<..",
".<0<abcde<.f2<..",
".<<<<<<<<<.<<<..",
".<<0}<g}h<....i.",
".<<<<<<<<<.jkjl.",
".<ma[<g}m<.jjjn.",
".<<o<<<<<<.pqrs.",
" .............. "};
