/* XPM */
static char * i16_cut_xpm[] = {
"16 16 57 1",
" 	c None",
".	c #000000",
"+	c #8E8E8E",
"@	c #E3E3E3",
"#	c #696969",
"$	c #F1F0E1",
"%	c #ECE9D5",
"&	c #EDEBD8",
"*	c #2E2D29",
"=	c #7E7D76",
"-	c #5D5C58",
";	c #53534F",
">	c #21211E",
",	c #79776C",
"'	c #EBE7D3",
")	c #8C866C",
"!	c #C1B485",
"~	c #343124",
"{	c #ABA89E",
"]	c #EFECE0",
"^	c #AEABA3",
"/	c #6C6A66",
"(	c #26241A",
"_	c #7A7251",
":	c #988E69",
"<	c #353225",
"[	c #26231A",
"}	c #302D21",
"|	c #333023",
"1	c #6E674C",
"2	c #7A7051",
"3	c #C0B99F",
"4	c #D8D0B3",
"5	c #FFFFFF",
"6	c #796F51",
"7	c #D3D3D3",
"8	c #796F50",
"9	c #D68A3F",
"0	c #F5E186",
"a	c #A66133",
"b	c #DDD7BE",
"c	c #786D4F",
"d	c #786D4E",
"e	c #796E4E",
"f	c #C0C0C0",
"g	c #AEAEAE",
"h	c #A39870",
"i	c #796E50",
"j	c #AFAFAF",
"k	c #6D6240",
"l	c #B2B2B2",
"m	c #A9A9A9",
"n	c #C4C4C4",
"o	c #685C3A",
"p	c #635935",
"q	c #443B1F",
"r	c #BAB5AB",
"        ...     ",
"    ....+@#.... ",
"   .$%&*=-;>,').",
"   .'!~{]]^/(!_.",
"   .%!:<[}[|1!2.",
"  .........3!42.",
" .555555555.:!6.",
" .5555.7555.!48.",
" .555.9.755.:!2.",
" .55.09a.75.!bc.",
" .5.009aa.5.:!d.",
" .5..09a..5.!4e.",
" .5f.09a.g5.h!i.",
" .55.....j5.!!k.",
" .55fflmn75.opq.",
"  .........r... "};
