/* XPM */
static char *i16_delete_column_xpm[] = {
/* width height num_colors chars_per_pixel */
"    16    16       19            1",
/* colors */
". c None",
"# c #000000",
"a c #ffffff",
"b c #e4e4e4",
"c c #ececec",
"d c #b8b8b8",
"e c #fcfcfc",
"f c #f7f7f1",
"g c #e6e6da",
"h c #cccc98",
"i c #9e9e91",
"j c #cccc97",
"k c #9d9d90",
"l c #f5f5ed",
"m c #e1e1d3",
"n c #abab9a",
"o c #7e7e7c",
"p c #330000",
"q c #ce3131",
/* pixels */
"......qq.qq.....",
".......qqq......",
"......qq.qq.....",
"................",
"................",
"......##p##.....",
"......#mno#.....",
"..#####lhi#####.",
"..#bdd#fjk#bdd#.",
"..#acd#fjk#acd#.",
"..#acd#fjk#acd#.",
"..#acd#fjk#acd#.",
"..#acd#fhi#acd#.",
"..#acd#efg#acd#.",
"..#aab#####aab#.",
"..#####...#####."
};
