/* XPM */
static char * i16_paste_xpm[] = {
"16 16 79 1",
" 	c None",
".	c #000000",
"+	c #8E8E8E",
"@	c #E3E3E3",
"#	c #696969",
"$	c #F1F0E1",
"%	c #ECE9D5",
"&	c #EDEBD8",
"*	c #2E2D29",
"=	c #7E7D76",
"-	c #5D5C58",
";	c #53534F",
">	c #21211E",
",	c #79776C",
"'	c #979487",
")	c #8C866C",
"!	c #EBE7D3",
"~	c #C1B485",
"{	c #343124",
"]	c #ABA89E",
"^	c #EFECE0",
"/	c #AEABA3",
"(	c #6C6A66",
"_	c #26241A",
":	c #8F8663",
"<	c #7A7251",
"[	c #988E69",
"}	c #353225",
"|	c #26231A",
"1	c #302D21",
"2	c #333023",
"3	c #6E674C",
"4	c #A69B72",
"5	c #7A7051",
"6	c #EBE8D4",
"7	c #D8D0B3",
"8	c #58523D",
"9	c #E9E6D2",
"0	c #FFFFFF",
"a	c #0C0C0C",
"b	c #0F0F0F",
"c	c #0B0B0B",
"d	c #0E0E0E",
"e	c #161616",
"f	c #DCDCDC",
"g	c #E9E6D1",
"h	c #141414",
"i	c #86AF83",
"j	c #9CB599",
"k	c #5A7E51",
"l	c #A9A9A9",
"m	c #E9E6D0",
"n	c #0A0A0A",
"o	c #85AF82",
"p	c #99B496",
"q	c #5C8054",
"r	c #9D9D9D",
"s	c #E8E5D0",
"t	c #A39870",
"u	c #1B1B1B",
"v	c #ADCAAB",
"w	c #83AF81",
"x	c #608058",
"y	c #6D8463",
"z	c #080808",
"A	c #BDBDBD",
"B	c #B8D1B8",
"C	c #9CB899",
"D	c #5D8155",
"E	c #090909",
"F	c #787878",
"G	c #EDEAD7",
"H	c #9BB798",
"I	c #E9E5CE",
"J	c #898267",
"K	c #746A45",
"L	c #6B623D",
"M	c #655A37",
"N	c #A3A3A3",
"     ...        ",
" ....+@#....    ",
".$%&*=-;>,').   ",
".!~{]^^/(_:<.   ",
".%~[}|1|2345.   ",
".6~~78......... ",
".9~[~.000000000.",
".9~~7.00abcdef0.",
".g~[~.00hijkhl0.",
".m~~7.00nopqcr0.",
".s~t~.0uvwpxyzA.",
".s~~7.0AdBCDEFA.",
".G~t~.00AuHaFA0.",
".I~~~.000AuFA00.",
".JKLM.0000Nf000.",
" .............. "};
