/* XPM */
static char * i16_redo_xpm[] = {
"16 16 34 1",
" 	c None",
".	c #000000",
"+	c #9DA291",
"@	c #C1D19C",
"#	c #9FA495",
"$	c #798261",
"%	c #C3CCAE",
"&	c #D0DCB5",
"*	c #CEDAB1",
"=	c #909583",
"-	c #8E9972",
";	c #DBE4C6",
">	c #D9E3C4",
",	c #D4DFBB",
"'	c #CDDAAF",
")	c #919586",
"!	c #848F6A",
"~	c #CFDBB2",
"{	c #BBC792",
"]	c #98A855",
"^	c #8A9D3E",
"/	c #5D6A29",
"(	c #B1BC96",
"_	c #A9B975",
":	c #92A44C",
"<	c #63712C",
"[	c #798A37",
"}	c #566322",
"|	c #6A7255",
"1	c #A1B172",
"2	c #B6C493",
"3	c #727A5B",
"4	c #A3B083",
"5	c #8D9871",
"                ",
"        ..      ",
"        .+.     ",
"     ....@#.    ",
"    .$%&*@@=.   ",
"   .-;>,'@@@).  ",
"  .!~{]^^^^^/.  ",
"  .(_:<..^^/.   ",
"  .@^[. .^<.    ",
"  .@^.  .}.     ",
"  .|1.  ..      ",
"   .2.          ",
"   .34.         ",
"    .$5.        ",
"     ..         ",
"                "};
