/* XPM */
static char * i16_search[] = {
"16 16 89 1",
" 	c None",
".	c #000000",
"+	c #FEFEFE",
"@	c #FDFDFD",
"#	c #E0E0E0",
"$	c #C1C1C1",
"%	c #F1F1F1",
"&	c #C3C3C3",
"*	c #FBFBFB",
"=	c #A8A8A8",
"-	c #B4B4B4",
";	c #AFAFAF",
">	c #767676",
",	c #737373",
"'	c #BABABA",
")	c #ADADAD",
"!	c #5D5D5D",
"~	c #404040",
"{	c #47473F",
"]	c #0A0A09",
"^	c #4B4B43",
"/	c #E2E2E2",
"(	c #858585",
"_	c #4B4B49",
":	c #161616",
"<	c #34342E",
"[	c #9D9D8D",
"}	c #CFCFB9",
"|	c #C4C4AF",
"1	c #8D8D7F",
"2	c #353530",
"3	c #EEEEEE",
"4	c #C5C5C5",
"5	c #46463F",
"6	c #9C9C8C",
"7	c #E2E2D0",
"8	c #EDEDE7",
"9	c #C0C0AC",
"0	c #B2B29F",
"a	c #828274",
"b	c #4C4C44",
"c	c #ECECEC",
"d	c #C4C4C4",
"e	c #090908",
"f	c #D5D5BF",
"g	c #FBFBFA",
"h	c #C3C3AE",
"i	c #B5B5A2",
"j	c #A6A695",
"k	c #959586",
"l	c #080807",
"m	c #EBEBEB",
"n	c #090909",
"o	c #CACAB5",
"p	c #DDDDD0",
"q	c #B7B7A4",
"r	c #AAAA98",
"s	c #9B9B8B",
"t	c #8C8C7D",
"u	c #EAEAEA",
"v	c #474740",
"w	c #929283",
"x	c #BABAA7",
"y	c #ADAD9B",
"z	c #9F9F8E",
"A	c #909081",
"B	c #727266",
"C	c #4C4C45",
"D	c #E8E8E8",
"E	c #C0C0C0",
"F	c #34342F",
"G	c #878779",
"H	c #A0A090",
"I	c #737367",
"J	c #010101",
"K	c #E7E7E7",
"L	c #BFBFBF",
"M	c #919191",
"N	c #414141",
"O	c #B3B3B3",
"P	c #BEBEBE",
"Q	c #E6E6E6",
"R	c #E5E5E5",
"S	c #E4E4E4",
"T	c #E3E3E3",
"U	c #CACACA",
"V	c #BDBDBD",
"W	c #BCBCBC",
"X	c #BBBBBB",
"   .........    ",
"  .++++++@#$.   ",
"  .+%%%%%%&*=.  ",
"  .+%-;>,')>!~. ",
"  .+%%{]]^/(_:. ",
"  .+%<[}|12334. ",
"  .+567890abcd. ",
"  .@efghijklm&. ",
"  .@nopqrst]u$. ",
"  .@vwxyzABCDE. ",
"  .@uFGHwIJJKL. ",
"  .@DM^]]NOJJP. ",
"  .@KKQQQRRJJJ. ",
"  .@QRRRSSTTJJJ ",
"  .UVVVWWXXXXJJJ",
"   ...........JJ"};
