/* XPM */
static char * i16_sort_ascending_xpm[] = {
"14 16 35 1",
" 	c None",
".	c #000000",
"+	c #0F0F0E",
"@	c #2C2D28",
"#	c #F0F1F0",
"$	c #CDD8C8",
"%	c #747C65",
"&	c #EDEEE8",
"*	c #9FB999",
"=	c #586748",
"-	c #A0BA9B",
";	c #A0BA9A",
">	c #9EB899",
",	c #9EB898",
"'	c #576648",
")	c #9CB796",
"!	c #9AB593",
"~	c #010101",
"{	c #090909",
"]	c #95B390",
"^	c #59694A",
"/	c #050604",
"(	c #151513",
"_	c #82867D",
":	c #C5D0C3",
"<	c #A3BDA0",
"[	c #78996F",
"}	c #516147",
"|	c #11120F",
"1	c #121411",
"2	c #666E63",
"3	c #9EB49A",
"4	c #647A5D",
"5	c #1D1E1A",
"6	c #646F5E",
"          ... ",
" ..+@.   .. ..",
" .#$%.   .....",
" .&*=.   .. ..",
" .&-=.   .. ..",
" .&;=.        ",
" .&>=.     .  ",
" .&,'.        ",
" .&)'.     .  ",
" .&!'.        ",
"~{&]^/~       ",
"(_:<[}|  .....",
" 1234.     ...",
"  56.     ... ",
"   .     ...  ",
"         ....."};
