/* XPM */
static char * i16_save_as_xpm[] = {
"16 16 111 2",
"  	c None",
". 	c #000000",
"+ 	c #F7F9FE",
"@ 	c #BADEFF",
"# 	c #C7C7C7",
"$ 	c #E9E9E9",
"% 	c #EAEAEA",
"& 	c #F2F2F2",
"* 	c #AAD8FF",
"= 	c #D0E8FF",
"- 	c #72ABDB",
"; 	c #A3A3A3",
"> 	c #BABABA",
", 	c #999999",
"' 	c #606060",
") 	c #030302",
"! 	c #C0E1FF",
"~ 	c #C3C3C3",
"{ 	c #C0C0C0",
"] 	c #777775",
"^ 	c #DFDFDE",
"/ 	c #C8B47E",
"( 	c #BEA25E",
"_ 	c #CEAA54",
": 	c #D5B96B",
"< 	c #CFB467",
"[ 	c #D0C5A8",
"} 	c #D6D1C0",
"| 	c #C5C1B4",
"1 	c #656565",
"2 	c #343434",
"3 	c #E6E6E6",
"4 	c #D4C6A9",
"5 	c #C0A567",
"6 	c #BB9C51",
"7 	c #B89345",
"8 	c #B4944A",
"9 	c #C3AF81",
"0 	c #CEC09D",
"a 	c #31302C",
"b 	c #D1CDBD",
"c 	c #53524A",
"d 	c #D7D7D7",
"e 	c #585857",
"f 	c #918A76",
"g 	c #887239",
"h 	c #877136",
"i 	c #866C2F",
"j 	c #826931",
"k 	c #B6A989",
"l 	c #C2BBAC",
"m 	c #BDB9AB",
"n 	c #B1B1B1",
"o 	c #6F6F6F",
"p 	c #020201",
"q 	c #EFEFEF",
"r 	c #FFFFFF",
"s 	c #F3F3F3",
"t 	c #ECECEC",
"u 	c #679DCA",
"v 	c #34658B",
"w 	c #9DC1E0",
"x 	c #C0D8EB",
"y 	c #BDCFE6",
"z 	c #B4CCE3",
"A 	c #8DB9DA",
"B 	c #6DA8DA",
"C 	c #649CCB",
"D 	c #649DC9",
"E 	c #649AC7",
"F 	c #71ACDA",
"G 	c #9DB1CA",
"H 	c #C5C5C5",
"I 	c #CECECE",
"J 	c #9C9E9F",
"K 	c #1C4B6F",
"L 	c #97A9BA",
"M 	c #69A2D2",
"N 	c #06375D",
"O 	c #214D72",
"P 	c #D6D6D6",
"Q 	c #B9B9B9",
"R 	c #043455",
"S 	c #426F99",
"T 	c #8AA7BF",
"U 	c #6AA8D7",
"V 	c #CDCDCD",
"W 	c #1D476A",
"X 	c #44739B",
"Y 	c #BFBFBF",
"Z 	c #03314E",
"` 	c #92ACBD",
" .	c #5E7A91",
"..	c #68A0CF",
"+.	c #103A61",
"@.	c #487EA3",
"#.	c #C2C2C2",
"$.	c #B2B2B2",
"%.	c #013454",
"&.	c #96ACBB",
"*.	c #4F657A",
"=.	c #3A678D",
"-.	c #A1A1A1",
";.	c #909090",
">.	c #868686",
",.	c #6E6E6E",
"'.	c #7A7A7A",
").	c #21395C",
"!.	c #315472",
"~.	c #788899",
"{.	c #0B3A58",
"  . . . . . . . . . . . . . .   ",
". + @ # $ $ $ $ $ $ % $ & * * . ",
". = - ; > , ' . . . . . . ) . . ",
". ! - ~ { ] ^ / ( _ : < [ } | . ",
". ! - 1 2 3 4 5 6 7 8 9 0 a b c ",
". ! - d { e f g h i j j k l m . ",
". ! - d d n o . . . . . . p . . ",
". ! - q r r s t t t t t q u v . ",
". ! - w x y z z z z z z A u v . ",
". ! - - B C u u u u D E u u v . ",
". ! - F G H H I t d J K L u v . ",
". ! - M H H N O P H Q R S T v . ",
". ! U u H V W X H H Y Z X ` v . ",
".  ...u V 3 +.@.H #.$.%.X &.v . ",
"  . *.=.-.{ ;.;.>.,.'.).!.~.{.. ",
"    . . . . . . . . . . . . .   "};
