/* XPM */
static char * i16_save_xpm[] = {
"16 16 80 1",
" 	c None",
".	c #000000",
"+	c #F7F9FE",
"@	c #BADEFF",
"#	c #C7C7C7",
"$	c #E9E9E9",
"%	c #EAEAEA",
"&	c #F2F2F2",
"*	c #AAD8FF",
"=	c #D0E8FF",
"-	c #72ABDB",
";	c #A3A3A3",
">	c #BABABA",
",	c #C0C0C0",
"'	c #E0E0E0",
")	c #3F6B94",
"!	c #C0E1FF",
"~	c #D7D7D7",
"{	c #FFFFFF",
"]	c #FAFAFA",
"^	c #69A2D2",
"/	c #39698E",
"(	c #D6D6D6",
"_	c #679DCA",
":	c #34658B",
"<	c #FDFDFD",
"[	c #F5F5F5",
"}	c #ECECEC",
"|	c #D4D4D4",
"1	c #C5C5C5",
"2	c #EFEFEF",
"3	c #F3F3F3",
"4	c #9DC1E0",
"5	c #C0D8EB",
"6	c #BDCFE6",
"7	c #B4CCE3",
"8	c #8DB9DA",
"9	c #6DA8DA",
"0	c #649CCB",
"a	c #649DC9",
"b	c #649AC7",
"c	c #71ACDA",
"d	c #9DB1CA",
"e	c #CECECE",
"f	c #9C9E9F",
"g	c #1C4B6F",
"h	c #97A9BA",
"i	c #06375D",
"j	c #214D72",
"k	c #B9B9B9",
"l	c #043455",
"m	c #426F99",
"n	c #8AA7BF",
"o	c #6AA8D7",
"p	c #CDCDCD",
"q	c #1D476A",
"r	c #44739B",
"s	c #BFBFBF",
"t	c #03314E",
"u	c #92ACBD",
"v	c #5E7A91",
"w	c #68A0CF",
"x	c #E6E6E6",
"y	c #103A61",
"z	c #487EA3",
"A	c #C2C2C2",
"B	c #B2B2B2",
"C	c #013454",
"D	c #96ACBB",
"E	c #4F657A",
"F	c #3A678D",
"G	c #A1A1A1",
"H	c #909090",
"I	c #868686",
"J	c #6E6E6E",
"K	c #7A7A7A",
"L	c #21395B",
"M	c #2F5370",
"N	c #788899",
"O	c #0B3A58",
" .............. ",
".+@#$$$$$$%$&**.",
".=-;>>>>>>>,'-).",
".!-~{{{{{{{{]^/.",
".!-~~~~~~~~(&_:.",
".!-~{{{{<[}}&_:.",
".!-~~~~|1111&_:.",
".!-2{{3}}}}}2_:.",
".!-4567777778_:.",
".!--90____ab__:.",
".!-cd11e}~fgh_:.",
".!-^11ij(1klmn:.",
".!o_1pqr11stru:.",
".vw_pxyz1ABCrD:.",
" .EFG,HHIJKLMNO.",
"  ............. "};
