/* XPM */
static char * i16_undo_xpm[] = {
"16 16 24 1",
" 	c None",
".	c #000000",
"+	c #EFE5BA",
"@	c #EFE7C1",
"#	c #EED680",
"$	c #EFE4B6",
"%	c #CCB76D",
"&	c #96864F",
"*	c #AF9D5D",
"=	c #8F6406",
"-	c #D1940C",
";	c #D7A328",
">	c #DEB446",
",	c #A49357",
"'	c #986B07",
")	c #D9AA35",
"!	c #B8820A",
"~	c #865E00",
"{	c #D4B150",
"]	c #847645",
"^	c #E0C978",
"/	c #C9B46B",
"(	c #8D7E4A",
"_	c #AE9C5C",
"                ",
"     ..         ",
"    .+.         ",
"   .@#....      ",
"  .$####%&.     ",
" .+#######*.    ",
" .=-----;>#,.   ",
"  .=--..'-)%.   ",
"   .'-. .!-#.   ",
"    .~.  .-#.   ",
"     ..  .{].   ",
"         .^.    ",
"        ./(.    ",
"       ._&.     ",
"        ..      ",
"                "};
