/* XPM */
static char * i24_split_cells_xpm[] = {
"24 24 6 1",
" 	c None",
".	c #000000",
"+	c #FFFFFF",
"@	c #E4E4E4",
"#	c #ECECEC",
"$	c #B8B8B8",
"                        ",
"                        ",
"                        ",
"                        ",
"                        ",
" ..........   ..........",
" .+++++++@.   .+++++++@.",
" .+######$.   .+######$.",
" .@$$$$$$$.   .@$$$$$$$.",
" ..........   ..........",
"                        ",
"                        ",
"                        ",
" ..........   ..........",
" .+++++++@.   .+++++++@.",
" .+######$.   .+######$.",
" .@$$$$$$$.   .@$$$$$$$.",
" ..........   ..........",
"                        ",
"                        ",
"                        ",
"                        ",
"                        ",
"                        "};
