/* XPM */
static char *align_left[] = {
/* width height num_colors chars_per_pixel */
"    24    24        2            1",
/* colors */
". c None",
"# c #000000",
/* pixels */
"........................",
"........................",
"........................",
"........................",
"..################......",
"..################......",
"........................",
"........................",
"..##########............",
"..##########............",
"........................",
"........................",
"..###################...",
"..###################...",
"........................",
"........................",
"..###############.......",
"..###############.......",
"........................",
"........................",
"..###################...",
"..###################...",
"........................",
"........................"
};
