/* XPM */
static char * auto_sum_xpm[] = {
"24 21 3 1",
" 	c None",
"#	c #000000",
"O	c #808080",
"                        ",
"                        ",
"   OOOOOOOOOOOO         ",
"   O############        ",
"    O##        #        ",
"     O##                ",
"      O##               ",
"       O##              ",
"        O##             ",
"         O##            ",
"         O##            ",
"        O##             ",
"       O##              ",
"      O##               ",
"     O##                ",
"    O##       OO        ",
"   O##OOOOOOOOO#        ",
"   O############        ",
"                        ",
"                        ",
"                        "};
