/* XPM */
static char *bold_xpm[] = {
/* width height num_colors chars_per_pixel */
"    20    18        2            1",
/* colors */
". c #303060",
"# c none",
/* pixels */
"####################",
"##########.#########",
"##########.#########",
"#########...########",
"########.....#######",
"########.....#######",
"########.....#######",
"#######..#....######",
"######..###....#####",
"######..###....#####",
"######.####....#####",
"#####....#.#....####",
"####...#.#.#.....###",
"####.########....###",
"###...########...###",
"##....######......##",
"##.##.#######.#.#..#",
"####################"
};
