/* XPM */
static char *border_outside[] = {
/* width height num_colors chars_per_pixel */
"   24    24        3            1",
/* colors */
". c #000000",
"# c #848484",
"  c None",
/* pixels */
"                        ",
"                        ",
"                        ",
"                        ",
"    .................   ",
"    .               .   ",
"    .       #       .   ",
"    .               .   ",
"    .       #       .   ",
"    .               .   ",
"    .       #       .   ",
"    .               .   ",
"    . # # # # # # # .   ",
"    .               .   ",
"    .       #       .   ",
"    .               .   ",
"    .       #       .   ",
"    .               .   ",
"    .       #       .   ",
"    .               .   ",
"    .................   ",
"                        ",
"                        ",
"                        "
};
