/* XPM */
static char *border_none[] = {
/* width height num_colors chars_per_pixel */
"   19    19        3            1",
/* colors */
". c #000000",
"# c #848484",
"  c None",
/* pixels */
"                   ",
"                   ",
"                   ",
"   # # # # # # #   ",
"                   ",
"   #     #     #   ",
"                   ",
"   #     #     #   ",
"                   ",
"   # # # # # # #   ",
"                   ",
"   #     #     #   ",
"                   ",
"   #     #     #   ",
"                   ",
"   # # # # # # #   ",
"                   ",
"                   ",
"                   "
};
