/* XPM */
static char * center_across_selection_16_xpm[] = {
"16 16 14 1",
" 	c None",
".	c #000000",
"+	c #FFFFFF",
"@	c #E4E4E4",
"#	c #ECECEC",
"$	c #BBBBBB",
"%	c #B8B8B8",
"&	c #3F3F3F",
"*	c #636363",
"=	c #A6A6A6",
"-	c #262626",
";	c #1D1D1D",
">	c #191919",
",	c #606060",
"                ",
"                ",
"................",
".+++++++++++++@.",
".+####$..$####%.",
".+&###.##.###*%.",
".=-;>#....#...,.",
".+*###.##.###*%.",
".@%%%%%%%%%%%%%.",
"................",
".++++++@++++++@.",
".+#####%+#####%.",
".+#####%+#####%.",
".+#####%+#####%.",
".@%%%%%%@%%%%%%.",
"................"};
