/* XPM */
static char * column_size_16_xpm[] = {
"16 16 12 1",
" 	c None",
".	c #8A6B34",
"+	c #000000",
"@	c #FFC662",
"#	c #CEA04D",
"$	c #CD9F4D",
"%	c #987639",
"&	c #C79A4A",
"*	c #FFFFFF",
"=	c #E4E4E4",
"-	c #ECECEC",
";	c #B8B8B8",
"  .+        +.  ",
" +@...#  $%%%@+ ",
"+@@@@@.  .@@@@@+",
" +@...&  &...@+ ",
"  .+        +.  ",
"                ",
"                ",
"++++++++++++++++",
"+*************=+",
"+*------------;+",
"+*------------;+",
"+*------------;+",
"+*------------;+",
"+ - - - - - - ;+",
"+* - - - - - - +",
"                "};
