/* XPM */
static char * font_xpm[] = {
"24 23 53 1",
".	c None",
"+	c #D8D8D8",
"@	c #000000",
"#	c #393939",
"$	c #737373",
"%	c #D4D4D4",
"&	c #F9F9F9",
"*	c #141414",
"=	c #6E6E6E",
"-	c #A9A9A9",
";	c #0F0F0F",
">	c #111111",
",	c #F7F7F7",
"'	c #444444",
")	c #9F9F9F",
"!	c #A4A4A4",
"~	c #DDDDDD",
"{	c #F8F8F8",
"]	c #3E3E3E",
"^	c #7A7A7A",
"/	c #6F6F6F",
"(	c #D7D7D7",
"_	c #FBFBFB",
":	c #191919",
"<	c #3D3D3D",
"[	c #747474",
"}	c #B0B0B0",
"|	c #A3A3A3",
"1	c #151515",
"2	c #4B4B4B",
"3	c #9D9D9D",
"4	c #E3E3E3",
"5	c #030303",
"6	c #818181",
"7	c #6A6A6A",
"8	c #D2D2D2",
"9	c #010101",
"0	c #FDFDFD",
"a	c #1F1F1F",
"b	c #CFCFCF",
"c	c #373737",
"d	c #797979",
"e	c #B7B7B7",
"f	c #343434",
"g	c #9C9C9C",
"h	c #181818",
"i	c #525252",
"j	c #999999",
"k	c #F4F4F4",
"l	c #0D0D0D",
"m	c #AEAEAE",
"n	c #DBDBDB",
"o	c #5B5B5B",
".........+@@#...........",
".........$@@@%..........",
"........&*@@@=..........",
"........-;@@@>,.........",
"........')*@@@!.........",
".......~*{$@@@].........",
".......^/.(@@@@+........",
"......_:%..<@@@[........",
"......}#...|@@@1&.......",
"......23...,>@@@-.......",
".....45@@@@@@@@@'.......",
".....67@@@@@8@@@9~......",
"....0ab......c@@@d......",
"....ef.......g@@@h_.....",
"....ij.......kl@@@m.....",
"...@@@@n....o@@@@@@@....",
"........................",
"........................",
"........................",
"........................",
"........................",
"........................",
"........................",
"........................"};
