/* XPM */
static char * function_selector_xpm[] = {
"24 24 104 2",
"  	c None",
". 	c #010101",
"+ 	c #000000",
"@ 	c #081929",
"# 	c #366389",
"$ 	c #040C15",
"% 	c #407099",
"& 	c #5A87AD",
"* 	c #081827",
"= 	c #41698A",
"- 	c #A3C2D6",
"; 	c #234D74",
"> 	c #658CAE",
", 	c #A8C6D9",
"' 	c #325D81",
") 	c #AFC9DA",
"! 	c #9ABED5",
"~ 	c #407095",
"{ 	c #071422",
"] 	c #38607F",
"^ 	c #E0E6EB",
"/ 	c #ACC8DB",
"( 	c #94B2C9",
"_ 	c #1F4A72",
": 	c #4D7BA2",
"< 	c #D3E1EA",
"[ 	c #8BAAC4",
"} 	c #5786AA",
"| 	c #28547D",
"1 	c #6B92B4",
"2 	c #DFE8EE",
"3 	c #81A2BE",
"4 	c #80A5BD",
"5 	c #326087",
"6 	c #2E5271",
"7 	c #ADC8DA",
"8 	c #D3DFE6",
"9 	c #678DAE",
"0 	c #CAD6DD",
"a 	c #39658A",
"b 	c #1C496F",
"c 	c #FFCC66",
"d 	c #49789C",
"e 	c #F1F3F4",
"f 	c #C3D2DE",
"g 	c #658BAC",
"h 	c #537C9E",
"i 	c #264F75",
"j 	c #996600",
"k 	c #FFFFCC",
"l 	c #95BBD4",
"m 	c #DEE7ED",
"n 	c #C6D7E3",
"o 	c #7296B5",
"p 	c #507A9D",
"q 	c #93B0C4",
"r 	c #27537C",
"s 	c #FBFAF6",
"t 	c #25537A",
"u 	c #779AB8",
"v 	c #C9D8E2",
"w 	c #F0F3F5",
"x 	c #769CBD",
"y 	c #648CAD",
"z 	c #BACBCD",
"A 	c #2F5C82",
"B 	c #30536D",
"C 	c #747474",
"D 	c #A2A2A2",
"E 	c #437096",
"F 	c #EEF1F3",
"G 	c #BED0DD",
"H 	c #BCCEDB",
"I 	c #698EB0",
"J 	c #AEC2CB",
"K 	c #FEFEFE",
"L 	c #96AEBB",
"M 	c #9CB1C1",
"N 	c #F5F1E6",
"O 	c #F2EFEB",
"P 	c #466F95",
"Q 	c #ADC3D2",
"R 	c #93ACC2",
"S 	c #B2C6D5",
"T 	c #44739B",
"U 	c #5381A4",
"V 	c #C3D2D6",
"W 	c #366087",
"X 	c #2F587A",
"Y 	c #F2EDDF",
"Z 	c #ECE9E3",
"` 	c #8DA8BD",
" .	c #8CABC3",
"..	c #3B6994",
"+.	c #477296",
"@.	c #345C81",
"#.	c #EBE4CE",
"$.	c #DFD9CE",
"%.	c #1F1F1F",
"&.	c #282828",
"*.	c #E1D6B5",
"=.	c #C6BDA9",
"-.	c #D4C494",
";.	c #A49474",
"                                                ",
"          .           + +                       ",
"          @         + +                         ",
"        . # .       + +       +             +   ",
"        $ % .       + +     +   + +     + +   + ",
"        $ & *     + + + +   +     + + + +     + ",
"      . = - ; .     + +     +       + +       + ",
"      $ > , ' .     + +     +     + + + +     + ",
"      . ) ! ~ {     + +     +   + +     + +   + ",
"    . ] ^ / ( _ .   + +       +             +   ",
"    . : < [ } | . + +               +           ",
"    $ 1 2 3 4 5 $                   +           ",
"  . 6 7 8 9 0 a b .               + c +         ",
"  . d e f g h 5 i .             + j k j +       ",
"  $ l m n o p q r .         + + c k s k c + +   ",
". t u v w x y z A B .       + C D j k j +       ",
". E F G H I J K L M .   + + N O + + c +         ",
". P Q R S T U V W X + + Y Z + +     +           ",
"  . . `  ...+.@.+ + #.$.+ +         +           ",
"      %.&.. + + *.=.+ +                         ",
"        + + -.;.+ +                             ",
"    + + -.;.+ +                                 ",
"  + -.;.+ +                                     ",
"    + +                                         "};
