/* XPM */
static char * insert_component_16_xpm[] = {
"16 16 53 1",
"  c #000000",
". c #121212",
"X c #23231a",
"o c #28281e",
"O c #2f2f26",
"+ c #2d2d2d",
"@ c #373729",
"# c #343434",
"$ c #3e3e30",
"% c #3d3d3d",
"& c #49493d",
"* c #424242",
"= c #4d4d45",
"- c #4f4f4f",
"; c #515144",
": c #59594a",
"> c #5e5e5e",
", c #6d6d52",
"< c #707054",
"1 c #6b6b6b",
"2 c #717171",
"3 c #7d7d7d",
"4 c #8b8b67",
"5 c #949476",
"6 c #9b9b7a",
"7 c #848484",
"8 c #8a8a8a",
"9 c #929292",
"0 c #9e9e9e",
"q c #aaaa8a",
"w c #b5b58f",
"e c #bfbf8f",
"r c #a4a4a4",
"t c #ababab",
"y c #b2b2b2",
"u c #cdcd9e",
"i c #cecea6",
"p c #c8c8af",
"a c #d1d1a3",
"s c #d9d9b4",
"d c #dcdcbc",
"f c #c2c2c2",
"g c #cccccc",
"h c #dfdfc2",
"j c #d4d4d4",
"k c #dcdcdc",
"l c #e0e0c2",
"z c #e5e5cd",
"x c #e9e9d6",
"c c #ebebd9",
"v c #e3e3e3",
"b c #eaeaea",
"n c None",
/* pixels */
"nnnnnnnnnnnnnnnn",
"nnnnnnnnnnnnnnnn",
"nnnn            ",
"nnnn 2tt7ttt8tr#",
"nnn ===&o7kbfbk%",
"    xzls,**10ft+",
"Opq:cxdaq;l6>vk%",
"Ow5;zsuu5&u4-jk%",
"    ieee,#+#2yy+",
"nnn $@@@.&rytbk%",
"nnnn >3728yjyjf#",
"nnnn 9gjtfgjykf#",
"nnnn rkktkkktkg%",
"nnnn #**#%%%#%%.",
"nnnnnnnnnnnnnnnn",
"nnnnnnnnnnnnnnnn"
};
