/* XPM */
static char * middle_vert_border[] = {
"24 22 3 1",
".	c None",
"o	c grey63",
"#	c black",
"o.o.o.o.#.o.o.o.#.o.o.o.",
"........#.......#.......",
"o.......#.......#......o",
"........#.......#.......",
"o.......#.......#......o",
"........#.......#.......",
"o.......#.......#......o",
"########################",
"o.......#.......#......o",
"........#.......#.......",
"o.......#.......#......o",
"........#.......#.......",
"o.......#.......#......o",
"........#.......#.......",
"########################"
"o.......#.......#......o",
"........#.......#.......",
"o.......#.......#......o",
"........#.......#.......",
"o.......#.......#......o",
"........#.......#.......",
"o.o.o.o.#.o.o.o.#.o.o.o."
};
