/* XPM */
static char *line_pattern_dash_dot_dot[] = {
/* width height num_colors chars_per_pixel */
"   54    19        2            1",
/* colors */
"# c #000000",
". c #ffffff",
"......................................................",
"......................................................",
"......................................................",
"......................................................",
"......................................................",
"......................................................",
"......................................................",
"......................................................",
"......................................................",
"......................................................",
"##...#########...###...###...#########...###...###...#",
"......................................................",
"......................................................",
"......................................................",
"......................................................",
"......................................................",
"......................................................",
"......................................................",
"......................................................",
"......................................................",
"......................................................",
};
