/* XPM */
static char * money_xpm[] = {
"24 24 10 1",
" 	c None",
".	c #16491F",
"+	c #157F29",
"@	c #2B6D38",
"#	c #3D5F44",
"$	c #47584A",
"%	c #4A564C",
"&	c #227432",
"*	c #4B564D",
"=	c #455A49",
"                        ",
"                        ",
"                        ",
" ...................... ",
" ...................... ",
" .++++++++++++++++++++. ",
" .++++++++++++++++++++. ",
" .++++++@#$%%$#@++++++. ",
" .++++&**********&++++. ",
" .++++=**********=++++. ",
" .++++=**********=++++. ",
" .++++&**********&++++. ",
" .++++++@#$%%$#@++++++. ",
" .++++++++++++++++++++. ",
" .++++++++++++++++++++. ",
" ...................... ",
" ...................... ",
"                        ",
"                        ",
"                        ",
"                        ",
"                        ",
"                        ",
"                        "};
