/* XPM */
static char * money_xpm[] = {
"24 24 139 2",
"  	c None",
". 	c #000000",
"+ 	c #829474",
"@ 	c #A5B39A",
"# 	c #51544E",
"$ 	c #88967C",
"% 	c #9EA795",
"& 	c #5A5C57",
"* 	c #AFB0AA",
"= 	c #9A9F92",
"- 	c #B2BDA7",
"; 	c #AAB79F",
"> 	c #96A789",
", 	c #838C7C",
"' 	c #181818",
") 	c #B4BFAA",
"! 	c #5D5E5C",
"~ 	c #565754",
"{ 	c #B3BDA8",
"] 	c #696B66",
"^ 	c #888986",
"/ 	c #7A8073",
"( 	c #A4B39A",
"_ 	c #97A78A",
": 	c #595959",
"< 	c #3F4332",
"[ 	c #7E8C75",
"} 	c #A3AB9C",
"| 	c #BBC0B0",
"1 	c #7A7F71",
"2 	c #4D4F49",
"3 	c #B7C1AA",
"4 	c #D0D6C8",
"5 	c #6B7068",
"6 	c #98A88C",
"7 	c #666666",
"8 	c #3E4638",
"9 	c #323528",
"0 	c #D0B884",
"a 	c #A8946A",
"b 	c #141414",
"c 	c #818778",
"d 	c #BBC4AF",
"e 	c #8E9584",
"f 	c #434940",
"g 	c #85937B",
"h 	c #5D5D5D",
"i 	c #2D3229",
"j 	c #353B31",
"k 	c #282A20",
"l 	c #9A8862",
"m 	c #92825E",
"n 	c #313131",
"o 	c #6D7A64",
"p 	c #484848",
"q 	c #2B3027",
"r 	c #22261F",
"s 	c #383F33",
"t 	c #26281F",
"u 	c #41423A",
"v 	c #A3A898",
"w 	c #6F7463",
"x 	c #B5A073",
"y 	c #7A6B4C",
"z 	c #272C23",
"A 	c #1D201A",
"B 	c #232820",
"C 	c #292F26",
"D 	c #6C6F62",
"E 	c #BDC1A9",
"F 	c #94948F",
"G 	c #8E908C",
"H 	c #4A4B45",
"I 	c #838877",
"J 	c #818F73",
"K 	c #93815C",
"L 	c #837E6F",
"M 	c #282D25",
"N 	c #262B23",
"O 	c #666B5C",
"P 	c #BABFA6",
"Q 	c #C5C9B5",
"R 	c #74766F",
"S 	c #5D5D5A",
"T 	c #7A7A77",
"U 	c #797C70",
"V 	c #83867F",
"W 	c #7C7F78",
"X 	c #B0B7A6",
"Y 	c #7A836D",
"Z 	c #878173",
"` 	c #5C5440",
" .	c #31372C",
"..	c #637357",
"+.	c #BEC8B6",
"@.	c #B9BFA7",
"#.	c #C0C6B0",
"$.	c #969B8B",
"%.	c #989C91",
"&.	c #898D82",
"*.	c #6C6E69",
"=.	c #BEC6B1",
"-.	c #B3BDA6",
";.	c #535353",
">.	c #2E3128",
",.	c #7B8C72",
"'.	c #9CB090",
").	c #373F30",
"!.	c #637156",
"~.	c #B8C3AF",
"{.	c #B6BFA8",
"].	c #BEC5B1",
"^.	c #A6B49B",
"/.	c #313629",
"(.	c #2F342A",
"_.	c #685F48",
":.	c #90A385",
"<.	c #64715C",
"[.	c #78876E",
"}.	c #899A7E",
"|.	c #56634B",
"1.	c #5B694F",
"2.	c #9BAB8F",
"3.	c #434343",
"4.	c #373C2F",
"5.	c #191B16",
"6.	c #32372B",
"7.	c #485243",
"8.	c #616D59",
"9.	c #728169",
"0.	c #3C4234",
"a.	c #282D24",
"b.	c #2F3428",
"c.	c #485142",
"d.	c #67745E",
"e.	c #292F25",
"f.	c #31362A",
"g.	c #3F483A",
"h.	c #3E4435",
"                                                ",
"                                                ",
"                                                ",
"                              .                 ",
"                            . + . .             ",
"                          . @ # @ $ . . .       ",
"                        . % & * = - ; > , . . . ",
"                      ' ) ! ~ { ] ^ / ( _ : < . ",
"                  . . [ } | 1 2 3 4 5 6 7 8 9 . ",
"                . 0 a . . b c d e f g h i j k . ",
"            . . l 0 0 0 0 m . . n o p q r s t . ",
"        . u v w . . . x 0 0 0 0 y . z A B C .   ",
"    . . D E F G H I J . . K 0 0 L . M N . .     ",
"  . O P Q R S T U V W X Y . . Z ` .  ..         ",
". . ..+.@.#.$.%.&.*.=.-.;.>.. ` ` . .           ",
". ,.'.).. !.+.~.{.].^.: /.(.. _.. .             ",
". :.<.[.'.}.|.. 1.2.3.4.5.6.. .                 ",
". . '.'.7.8.'.'.9.. 0.a.b.. .                   ",
"    . . '.'.c.d.'.. e.f..                       ",
"        . . '.:.g.. h..                         ",
"            . . '.. .                           ",
"                . .                             ",
"                                                ",
"                                                "};
