/* XPM */
static char * insert_shaped_component_xpm[] = {
"24 24 2 1",
" 	c None",
".	c #000000",
"                        ",
"                        ",
"  ...................   ",
"  .                 .   ",
"  .                 .   ",
"  .    .  . .       .   ",
"  .                 .   ",
"  .  .      .       .   ",
"  .          .      .   ",
"  .  .              .   ",
"  .                 .   ",
"  .                 .   ",
"  .                 .   ",
"  .                 .   ",
"  .                 .   ",
"  .                 .   ",
"  .                 .   ",
"  .                 .   ",
"  .                 .   ",
"  ...................   ",
"                        ",
"                        ",
"                        ",
"                        "};
