/* XPM */
static char * padlock[] = {
"24 24 137 2",
"  	c None",
". 	c #BBBBBB",
"+ 	c #A9A9A9",
"@ 	c #A0A0A0",
"# 	c #BABABA",
"$ 	c #B8B8B8",
"% 	c #B4B4B4",
"& 	c #7D7D7D",
"* 	c #A8A8A8",
"= 	c #9E9E9E",
"- 	c #A2937B",
"; 	c #B4A994",
"> 	c #B3AA9A",
", 	c #797979",
"' 	c #8D8D8D",
") 	c #A4957B",
"! 	c #C8B89A",
"~ 	c #DFD1B7",
"{ 	c #D7CBB6",
"] 	c #C2B297",
"^ 	c #89795F",
"/ 	c #0F0C09",
"( 	c #919191",
"_ 	c #5C5C5C",
": 	c #A6977C",
"< 	c #C6B597",
"[ 	c #E1D1B6",
"} 	c #E5D8C2",
"| 	c #CFBFA4",
"1 	c #B8A486",
"2 	c #9A886B",
"3 	c #88765A",
"4 	c #3E3930",
"5 	c #6D6D6D",
"6 	c #2E2E2E",
"7 	c #A3947A",
"8 	c #C6B496",
"9 	c #DECDB1",
"0 	c #E7DAC5",
"a 	c #D2C2A8",
"b 	c #BFAB8C",
"c 	c #A79475",
"d 	c #998567",
"e 	c #8A765A",
"f 	c #6E5E46",
"g 	c #2B2A29",
"h 	c #0B0B0B",
"i 	c #A5967A",
"j 	c #C5B395",
"k 	c #DBCAAC",
"l 	c #E6D8C3",
"m 	c #D6C8AF",
"n 	c #C2AE8E",
"o 	c #AF9C7D",
"p 	c #9A8669",
"q 	c #907C5F",
"r 	c #7D6A4E",
"s 	c #625139",
"t 	c #30271B",
"u 	c #000000",
"v 	c #92846B",
"w 	c #BCAC8F",
"x 	c #C9B99A",
"y 	c #DACEB8",
"z 	c #DACCB5",
"A 	c #C4B192",
"B 	c #B5A283",
"C 	c #9D896C",
"D 	c #917D60",
"E 	c #806D50",
"F 	c #6C593F",
"G 	c #55452F",
"H 	c #211A10",
"I 	c #877B63",
"J 	c #92846C",
"K 	c #AEA089",
"L 	c #CEC2AC",
"M 	c #BAA88C",
"N 	c #A18E6F",
"O 	c #937F62",
"P 	c #847054",
"Q 	c #725F44",
"R 	c #5E4C34",
"S 	c #483925",
"T 	c #040301",
"U 	c #6D6350",
"V 	c #716652",
"W 	c #6E644F",
"X 	c #92846A",
"Y 	c #9C8A6E",
"Z 	c #907C60",
"` 	c #867356",
" .	c #766246",
"..	c #655339",
"+.	c #50402A",
"@.	c #2D2316",
"#.	c #4F493C",
"$.	c #685F4C",
"%.	c #625946",
"&.	c #5A513E",
"*.	c #695E4A",
"=.	c #685D48",
"-.	c #7C6B51",
";.	c #736045",
">.	c #6A563D",
",.	c #56462F",
"'.	c #433421",
").	c #0D0A05",
"!.	c #4F493B",
"~.	c #4D4536",
"{.	c #433C2C",
"].	c #605643",
"^.	c #655B48",
"/.	c #625845",
"(.	c #66563E",
"_.	c #5A4830",
":.	c #493925",
"<.	c #281F12",
"[.	c #403A2F",
"}.	c #5C5443",
"|.	c #796E59",
"1.	c #665C49",
"2.	c #645A46",
"3.	c #5B5240",
"4.	c #4D3E2A",
"5.	c #3B2D1A",
"6.	c #15130F",
"7.	c #3D372C",
"8.	c #534A3B",
"9.	c #50483A",
"0.	c #4D4636",
"a.	c #443B2B",
"b.	c #161008",
"c.	c #030202",
"d.	c #15110C",
"e.	c #1F1B14",
"f.	c #1C1812",
"                                                ",
"                                                ",
"                                                ",
"                                                ",
"                                                ",
"                          . + @ # $             ",
"                        % &       * =           ",
"                    - ; >         , '           ",
"                  ) ! ~ { ] ^ /   ( _           ",
"                : < [ } | 1 2 3 4 5 6           ",
"              7 8 9 0 a b c d e f g h           ",
"            i j k l m n o p q r s t u           ",
"          v w x y z A B C D E F G H u           ",
"          I J K L M 1 N O P Q R S T u           ",
"          U V W W X Y Z `  ...+.@.u u           ",
"          #.$.%.&.*.=.-.;.>.,.'.).u             ",
"          u !.~.{.].^./.(._.:.<.u u             ",
"            u [.}.|.1.2.3.4.5.T u u             ",
"            u u 6.7.8.9.0.a.b.u u               ",
"                u u c.d.e.f.u u                 ",
"                  u u u u u u                   ",
"                                                ",
"                                                ",
"                                                "};
