/* XPM */
static char * padlock_no[] = {
"24 24 119 2",
"  	c None",
". 	c #FF0000",
"+ 	c #B77777",
"@ 	c #A0A0A0",
"# 	c #BABABA",
"$ 	c #B8B8B8",
"% 	c #CB1E1E",
"& 	c #A8A8A8",
"* 	c #9E9E9E",
"= 	c #F5302A",
"- 	c #797979",
"; 	c #8D8D8D",
"> 	c #FD0000",
", 	c #FA3732",
"' 	c #D7CBB6",
") 	c #C2B297",
"! 	c #89795F",
"~ 	c #0F0C09",
"{ 	c #919191",
"] 	c #5C5C5C",
"^ 	c #F40000",
"/ 	c #F53129",
"( 	c #CFBFA4",
"_ 	c #B8A486",
": 	c #9A886B",
"< 	c #88765A",
"[ 	c #3E3930",
"} 	c #6D6D6D",
"| 	c #2E2E2E",
"1 	c #E89D88",
"2 	c #F93732",
"3 	c #EF2B23",
"4 	c #A79475",
"5 	c #998567",
"6 	c #8A765A",
"7 	c #6E5E46",
"8 	c #2B2A29",
"9 	c #0B0B0B",
"0 	c #F80000",
"a 	c #EF6859",
"b 	c #E6D8C3",
"c 	c #D6C8AF",
"d 	c #B3654F",
"e 	c #907C5F",
"f 	c #7D6A4E",
"g 	c #625139",
"h 	c #30271B",
"i 	c #000000",
"j 	c #E40B08",
"k 	c #F22F28",
"l 	c #DACEB8",
"m 	c #DACCB5",
"n 	c #C4B192",
"o 	c #C87A62",
"p 	c #A0523C",
"q 	c #6C593F",
"r 	c #55452F",
"s 	c #211A10",
"t 	c #B86F5F",
"u 	c #CEC2AC",
"v 	c #BAA88C",
"w 	c #A18E6F",
"x 	c #AE5F4A",
"y 	c #863827",
"z 	c #483925",
"A 	c #040301",
"B 	c #F70000",
"C 	c #B83329",
"D 	c #6E644F",
"E 	c #92846A",
"F 	c #9C8A6E",
"G 	c #907C60",
"H 	c #867356",
"I 	c #984A34",
"J 	c #D2100A",
"K 	c #2D2316",
"L 	c #DB1714",
"M 	c #685F4C",
"N 	c #625946",
"O 	c #5A513E",
"P 	c #695E4A",
"Q 	c #685D48",
"R 	c #7C6B51",
"S 	c #736045",
"T 	c #6A563D",
"U 	c #D6120C",
"V 	c #990000",
"W 	c #4F493B",
"X 	c #4D4536",
"Y 	c #433C2C",
"Z 	c #605643",
"` 	c #655B48",
" .	c #625845",
"..	c #66563E",
"+.	c #5A4830",
"@.	c #493925",
"#.	c #CE0B06",
"$.	c #F90000",
"%.	c #AB0000",
"&.	c #403A2F",
"*.	c #5C5443",
"=.	c #796E59",
"-.	c #665C49",
";.	c #645A46",
">.	c #5B5240",
",.	c #4D3E2A",
"'.	c #3B2D1A",
").	c #FA0000",
"!.	c #15130F",
"~.	c #3D372C",
"{.	c #534A3B",
"].	c #50483A",
"^.	c #4D4636",
"/.	c #443B2B",
"(.	c #161008",
"_.	c #030202",
":.	c #15110C",
"<.	c #1F1B14",
"[.	c #1C1812",
"                                  . .           ",
"                                . .             ",
"                            . . . .             ",
"                          . . . .               ",
"              . .       . . .                   ",
"              . .       . . + @ # $             ",
"              . .     . . %       & *           ",
"                . . . . =         - ;           ",
"                > . . , ' ) ! ~   { ]           ",
"              ^ . / . . ( _ : < [ } |           ",
"              . . 1 2 . 3 4 5 6 7 8 9           ",
"            0 . a b c . . d e f g h i           ",
"          j . k l m n o . . p q r s i           ",
"          . . t u v _ w x . . y z A i           ",
"        B . C D D E F G H I . J K i i           ",
"        . L M N O P Q R S T U . . i             ",
"        . V W X Y Z `  ...+.@.#.. i             ",
"      $.. %.i &.*.=.-.;.>.,.'.A i i             ",
"      )..   i i !.~.{.].^./.(.i i               ",
"      > .       i i _.:.<.[.i i                 ",
"      . .         i i i i i i                   ",
"                                                ",
"                                                ",
"                                                "};
