/* XPM */
static char * percent_xpm[] = {
"20 16 2 1",
" 	c None",
".	c #000000",
"   ....        ..   ",
"  ..  ...     ..    ",
" ..   ...    ..     ",
"...   ...   ..      ",
"...   ...   .       ",
"...   ...  ..       ",
"...   ..  ..  ....  ",
"...  ... ..  .. ... ",
" ..  .. ..  ..   ...",
"  ....  .   ..   ...",
"       ..  ...   ...",
"      ..   ...   ...",
"     ..    ...   .. ",
"    ..     ...  ... ",
"    .      ...  ..  ",
"   ..       ....    "};
