/* XPM */
static char * remove_decimals_xpm[] = {
"24 21 2 1",
" 	c None",
".	c #000000",
"                        ",
"            ...   ...   ",
"           .. .. .. ..  ",
"           .. .. .. ..  ",
"           .. .. .. ..  ",
"           .. .. .. ..  ",
"           .. .. .. ..  ",
"       ..  .. .. .. ..  ",
"       ..   ...   ...   ",
"                        ",
"                        ",
"                        ",
"     .            ...   ",
"     ..          .. ..  ",
"   .....         .. ..  ",
"   ......        .. ..  ",
"   .....         .. ..  ",
"     ..          .. ..  ",
"     .       ..  .. ..  ",
"             ..   ...   ",
"                        "};
