/* XPM */
static char * row_size_16_xpm[] = {
"16 16 9 1",
" 	c None",
".	c #000000",
"+	c #FFC662",
"@	c #8A6B34",
"#	c #987639",
"$	c #FFFFFF",
"%	c #ECECEC",
"&	c #E4E4E4",
"*	c #B8B8B8",
"                ",
"                ",
"  .             ",
" .+.            ",
"@+++@ ......... ",
".#+@. .$$$$$$$ $",
" #+@  .$%%%%%%% ",
" #.@  .$%%%%%% %",
"      .$%%%%%%% ",
" @.@  .$%%%%%% %",
" @+@  .$%%%%%%% ",
".@+@. .&****** *",
"@+++@ ......... ",
" .+.            ",
"  .             ",
"                "};
