/* XPM */
static char * row_size_24_xpm[] = {
"24 24 9 1",
" 	c None",
".	c #000000",
"+	c #FFC662",
"@	c #8A6B34",
"#	c #FFFFFF",
"$	c #987639",
"%	c #ECECEC",
"&	c #E4E4E4",
"*	c #B8B8B8",
"                        ",
"                        ",
"                        ",
"                        ",
"                        ",
"                        ",
"     .                  ",
"    .+.   ...........   ",
"   @+++@  .#########    ",
"   .$+@.  .#%%%%%%% %   ",
"    $+@   .#%%%%%%%%    ",
"    $.@   .#%%%%%%% %   ",
"          .#%%%%%%%%    ",
"    @.@   .#%%%%%%% %   ",
"    @+@   .#%%%%%%%%    ",
"   .@+@.  .#%%%%%%% %   ",
"   @+++@  .&********    ",
"    .+.   ...........   ",
"     .                  ",
"                        ",
"                        ",
"                        ",
"                        ",
"                        "};
