/* XPM */
static char * row_unhide_16_xpm[] = {
"16 16 19 1",
" 	c None",
".	c #000000",
"+	c #FFFFFF",
"@	c #E4E4E4",
"#	c #ECECEC",
"$	c #B8B8B8",
"%	c #FCFCFC",
"&	c #F7F7F1",
"*	c #F5F5ED",
"=	c #E1E1D3",
"-	c #F8F8F5",
";	c #CCCC97",
">	c #CCCC98",
",	c #ABAB9A",
"'	c #330000",
")	c #E6E6DA",
"!	c #9D9D90",
"~	c #9E9E91",
"{	c #7E7E7C",
"                ",
"   ..........   ",
"   .+++++++@.   ",
"   .+######$.   ",
".  .@$$$$$$$.  .",
" . .......... . ",
"   .%&&&&&*=.   ",
".  .-;;;;;>,'  .",
"   .)!!!!!~{.   ",
" . .......... . ",
".  .+++++++@.  .",
"   .+######$.   ",
"   .@$$$$$$$.   ",
"   ..........   ",
"                ",
"                "};
