/* XPM */
static char * sort_descending_xpm[] = {
"24 24 33 1",
" 	c None",
".	c #000000",
"+	c #E7ECE3",
"@	c #EDF1EB",
"#	c #B4CBB2",
"$	c #466134",
"%	c #E9EEE7",
"&	c #D5E2D5",
"*	c #AFC9AF",
"=	c #679461",
"-	c #496437",
";	c #D2DCCB",
">	c #D9E1D3",
",	c #B1CAB0",
"'	c #699B69",
")	c #6C9B6A",
"!	c #66935F",
"~	c #DBE3D6",
"{	c #6C9E6C",
"]	c #405930",
"^	c #ECF0E9",
"/	c #425B32",
"(	c #EDF1EA",
"_	c #ECF0EA",
":	c #6B9D6B",
"<	c #6B9C6A",
"[	c #6A9C6A",
"}	c #E9EEE6",
"|	c #6A9C69",
"1	c #415930",
"2	c #668155",
"3	c #3D542D",
"4	c #3A502B",
"                        ",
"                        ",
"                        ",
"        .       ...     ",
"       .+.        ..    ",
"      .@#$.      ..     ",
"     .%&*=-.      ..    ",
"    .;>,')!-.   ...     ",
"    ...~{]...           ",
"      .^{/.             ",
"      .({].     ...     ",
"      .({/.       ..    ",
"      .^{/.      ..     ",
"      .^{/.     ..      ",
"      ._{/.     ....    ",
"      .@:/.             ",
"      ._</.             ",
"      .@[/.      ..     ",
"      .}|1.     ...     ",
"      .234.      ..     ",
"      .....      ..     ",
"                 ..     ",
"                        ",
"                        "};
