/* XPM */
static char * sort_ascending_xpm[] = {
"24 24 36 1",
" 	c None",
".	c #2F562F",
"+	c #000000",
"@	c #FAFAFA",
"#	c #DDDFD2",
"$	c #8B8E7C",
"%	c #E5E7DD",
"&	c #84A77E",
"*	c #586546",
"=	c #81A57C",
"-	c #EDEEE8",
";	c #81A57B",
">	c #ECEDE6",
",	c #003300",
"'	c #7EA379",
")	c #7DA377",
"!	c #DDDFD3",
"~	c #7DA378",
"{	c #C9D5C4",
"]	c #7EA378",
"^	c #7C7E73",
"/	c #DFE7DE",
"(	c #CCDACA",
"_	c #90B08C",
":	c #76986D",
"<	c #6C855E",
"[	c #22231E",
"}	c #3F443B",
"|	c #C8D8C7",
"1	c #9DB89A",
"2	c #76966B",
"3	c #3D4237",
"4	c #565B4E",
"5	c #9EBA9A",
"6	c #3C4237",
"7	c #5E6154",
"                        ",
"                        ",
"                        ",
"               ....     ",
"     +++++    ..  ..    ",
"     +@#$+    ..  ..    ",
"     +%&*+    ......    ",
"     +%=*+    ..  ..    ",
"     +-;*+    ..  ..    ",
"     +>;*+              ",
"     +%=*+      ,,      ",
"     +%=*+      ,,      ",
"     +%'*+              ",
"     +%)*+      ,,      ",
"     +!~*+      ,,      ",
"   +++{]*+++            ",
"   +^/(_:<[+  ++++++    ",
"    +}|123+      +++    ",
"     +456+      +++     ",
"      +7+      +++      ",
"       +      +++       ",
"              ++++++    ",
"                        ",
"                        "};
