/* XPM */
static char * sort_descending_xpm[] = {
"24 24 37 1",
" 	c None",
".	c #990000",
"+	c #000000",
"@	c #F8F0EE",
"#	c #E5B9BB",
"$	c #895F63",
"%	c #E7BDBC",
"&	c #C14B35",
"*	c #922B34",
"=	c #C24F3C",
"-	c #942B32",
";	c #E8BFBE",
">	c #E8C2BF",
",	c #C34E3B",
"'	c #660000",
")	c #C24F3A",
"!	c #C24D38",
"~	c #E5B8B9",
"{	c #C24F38",
"]	c #E2B1AA",
"^	c #CC6B5A",
"/	c #643C3E",
"(	c #E3B5AC",
"_	c #E3B3A9",
":	c #D07868",
"<	c #982E19",
"[	c #7E261F",
"}	c #120C0F",
"|	c #2B1D1F",
"1	c #DFAA9E",
"2	c #D28575",
"3	c #7D2617",
"4	c #321C23",
"5	c #3B262E",
"6	c #D68A7A",
"7	c #321C21",
"8	c #3F2A35",
"                        ",
"                        ",
"                        ",
"              ......    ",
"     +++++       ...    ",
"     +@#$+      ...     ",
"     +%&*+     ...      ",
"     +%=-+    ...       ",
"     +;=-+    ......    ",
"     +>,-+              ",
"     +%=-+      ''      ",
"     +%=-+      ''      ",
"     +%)-+              ",
"     +%!-+      ''      ",
"     +~{-+      ''      ",
"   +++]^-+++            ",
"   +/(_:<[}+   ++++     ",
"    +|1234+   ++  ++    ",
"     +567+    ++  ++    ",
"      +8+     ++++++    ",
"       +      ++  ++    ",
"              ++  ++    ",
"                        ",
"                        "};
