/* XPM */
static char * sort_ascending_xpm[] = {
"24 24 32 1",
" 	c None",
".	c #000000",
"+	c #F1E1DD",
"@	c #E5C7C0",
"#	c #B45C48",
"$	c #E9CFCA",
"%	c #C4221B",
"&	c #A63D25",
"*	c #ECD6D2",
"=	c #C62620",
"-	c #ECD5D0",
";	c #C82B26",
">	c #CC322E",
",	c #CF3835",
"'	c #D03936",
")	c #D13C3A",
"!	c #ECD7D2",
"~	c #D3403E",
"{	c #D54443",
"]	c #E4C6BF",
"^	c #D44240",
"/	c #E4ABA6",
"(	c #DF928D",
"_	c #E17C7B",
":	c #C7453D",
"<	c #C1140D",
"[	c #592639",
"}	c #DB6C69",
"|	c #E07676",
"1	c #C2150E",
"2	c #613445",
"3	c #D13D3B",
"                        ",
"                        ",
"                        ",
"                 ..     ",
"      .....     ...     ",
"      .+@#.      ..     ",
"      .$%&.      ..     ",
"      .*=&.      ..     ",
"      .-;&.             ",
"      .*>&.             ",
"      .-,&.     ...     ",
"      .-'&.       ..    ",
"      .-)&.      ..     ",
"      .!~&.     ..      ",
"      .-~&.     ....    ",
"      .-{&.             ",
"    ...]^&...           ",
"    .&/(_:<[.   ...     ",
"     .&}|12.      ..    ",
"      .&3[.      ..     ",
"       .[.        ..    ",
"        .       ...     ",
"                        ",
"                        "};
