/* XPM */
static char * zoom_in_cursor_xpm[] = {
"24 24 4 1",
" 	c None",
".	c #000015",
"+	c #000001",
"@	c #000000",
"                        ",
"                        ",
"     .+@+@              ",
"   @@     @@            ",
"  @@       @@           ",
"  @   @@@   @           ",
" @    @ @    @          ",
" @  @@@ @@@  @          ",
" @  @     @  @          ",
" @  @@@ @@@  @          ",
" @    @ @    @          ",
"  @   @@@   @@          ",
"  @@       @ @          ",
"   @@     @ @ @         ",
"    @@@@@@@@ @ @        ",
"     @@@@@  @ @ @       ",
"             @ @ @      ",
"              @ @ @     ",
"               @ @ @    ",
"                @ @ @   ",
"                 @   @  ",
"                  @  @  ",
"                   @@   ",
"                        "};
