/* XPM */
static char * comment_add_16_xpm[] = {
"16 16 49 1",
" 	c None",
".	c #000000",
"+	c #ADADAD",
"@	c #D2D2D2",
"#	c #FFFFFF",
"$	c #CFCFCF",
"%	c #CACACA",
"&	c #C8C8C8",
"*	c #D3D3D3",
"=	c #EDEDED",
"-	c #F8F8F8",
";	c #C9C9C9",
">	c #434343",
",	c #F9F9F9",
"'	c #D5D5D5",
")	c #FBFBFB",
"!	c #999999",
"~	c #949494",
"{	c #EFEFEF",
"]	c #ABABAB",
"^	c #F3F3F3",
"/	c #5F5F5F",
"(	c #FCFCFC",
"_	c #E8E8E8",
":	c #FDFDFD",
"<	c #DEDEDE",
"[	c #EEEEEE",
"}	c #C5C5C5",
"|	c #F2F2F2",
"1	c #474747",
"2	c #181818",
"3	c #C2C2C2",
"4	c #B8B8B8",
"5	c #F0F0F0",
"6	c #525252",
"7	c #464646",
"8	c #F6F2F2",
"9	c #FAFAFA",
"0	c #9D9D9D",
"a	c #C1C1C1",
"b	c #DBDBDB",
"c	c #EBEBEB",
"d	c #8F8F8F",
"e	c #E5E5E5",
"f	c #F7F7F7",
"g	c #9B9B9B",
"h	c #E9E9E9",
"i	c #E0E0E0",
"j	c #C0C0C0",
"                ",
"                ",
"                ",
"    .......     ",
"  ..+@##$%&..   ",
" .*=-##;.>,='.  ",
".')####!.~##{]. ",
".^#####/.###(_. ",
"._:#####<###([. ",
".}|-##12###:(3. ",
" .45[:67##890.  ",
"  ..abc(:|d..   ",
"    ...efg.     ",
"      .hi.      ",
"      .j.       ",
"     ...        "};
