/* XPM */
static char * comment_delete_16_xpm[] = {
"16 16 50 1",
" 	c None",
".	c #000000",
"+	c #ADADAD",
"@	c #D2D2D2",
"#	c #EBEBEB",
"$	c #F5F5F5",
"%	c #E7E7E7",
"&	c #D5D5D5",
"*	c #B8B8B8",
"=	c #D3D3D3",
"-	c #EDEDED",
";	c #F8F8F8",
">	c #CB8181",
",	c #F2E2E2",
"'	c #FEFEFE",
")	c #F3E3E3",
"!	c #CA7D7D",
"~	c #F9F9F9",
"{	c #FBFBFB",
"]	c #FFFFFF",
"^	c #BF6262",
"/	c #990000",
"(	c #EFEFEF",
"_	c #ABABAB",
":	c #F3F3F3",
"<	c #C46F6F",
"[	c #FCFCFC",
"}	c #E8E8E8",
"|	c #FDFDFD",
"1	c #E0B3B3",
"2	c #D89F9F",
"3	c #EEEEEE",
"4	c #C5C5C5",
"5	c #F2F2F2",
"6	c #B64D4D",
"7	c #C2C2C2",
"8	c #F0F0F0",
"9	c #E6C6C6",
"0	c #F6F2F2",
"a	c #FAFAFA",
"b	c #9D9D9D",
"c	c #C1C1C1",
"d	c #DBDBDB",
"e	c #8F8F8F",
"f	c #E5E5E5",
"g	c #F7F7F7",
"h	c #9B9B9B",
"i	c #E9E9E9",
"j	c #E0E0E0",
"k	c #C0C0C0",
"                ",
"                ",
"                ",
"    .......     ",
"  ..+@#$%&*..   ",
" .=-;>,')!~-&.  ",
".&{]]^/)//!](_. ",
".:]]]]</<]]][}. ",
".}|]]1/1/2]][3. ",
".45;]6/])/!|[7. ",
" .*83|||'90ab.  ",
"  ..cd#[|5e..   ",
"    ...fgh.     ",
"      .ij.      ",
"      .k.       ",
"     ...        "};
