/* XPM */
static char * graph_guru_16_xpm[] = {
/* columns rows colors chars-per-pixel */
"16 16 52 1",
"  c #000000",
". c #0b1116",
"X c #190a07",
"o c #121211",
"O c #001122",
"+ c #0b1c2d",
"@ c #132434",
"# c #2a0608",
"$ c #281814",
"% c #382404",
"& c #212120",
"* c #2a2b28",
"= c #353629",
"- c #3a3b2e",
"; c #2d3e4f",
": c #334455",
"> c #3b4855",
", c #434438",
"< c #514d46",
"1 c #575e5d",
"2 c #5b5c54",
"3 c #74765c",
"4 c #77785c",
"5 c #6f7062",
"6 c #4477aa",
"7 c #7f817a",
"8 c #5a82a8",
"9 c #5a8dc0",
"0 c #6699cc",
"q c #77aadd",
"w c #991c1f",
"e c #9c2a2c",
"r c #bb7711",
"t c #aa7e31",
"y c #9c6062",
"u c #c01c24",
"i c #cb484e",
"p c #cd4c52",
"a c #aa8844",
"s c #aa8d55",
"d c #c6821b",
"f c #ff9900",
"g c #ffb13d",
"h c #8a8d82",
"j c #b89693",
"k c #a9ac85",
"l c #b6b895",
"z c #87afd7",
"x c #8ab1d8",
"c c #96bde4",
"v c #dfc3b7",
"b c None",
/* pixels */
"bbbbbbbbbbbbbbbb",
"bb  bbbbbbbbbbbb",
"b 5,bbbbbbbbbbbb",
" 2l-bbbbbbbbbbbb",
" 3k=  bbb >:;.bb",
" 3vjy#bbb cq9+bb",
" 3iuwX    x06Obb",
" 3puwXsat%x06Obb",
" 3puwXgfrox06Obb",
" 3puwXgfrox06Obb",
" 3puwXgfroz06Obb",
" 3puwXgfrox06Obb",
" 3puw$gfr&x06@*o",
" 4pue<gfd1x081so",
" ,hhhhhhhhhhhh.b",
"              bb"
};
