/* XPM */
static char * ungroup_16_xpm[] = {
"16 16 29 1",
" 	c None",
".	c #000000",
"+	c #22282C",
"@	c #788C99",
"#	c #A2C0D3",
"$	c #9EBDD1",
"%	c #6E8594",
"&	c #1E2529",
"*	c #CCE5CC",
"=	c #A7C4D6",
"-	c #A9C8DC",
";	c #A5C5DA",
">	c #A0C2D7",
",	c #9CBED4",
"'	c #91B3C9",
")	c #1C2328",
"!	c #93BC93",
"~	c #97BBD2",
"{	c #92B7CF",
"]	c #627C8C",
"^	c #8EB4CC",
"/	c #83AAC2",
"(	c #889988",
"_	c #89B1CA",
":	c #7FA6BF",
"<	c #85ADC7",
"[	c #587587",
"}	c #7AA3BC",
"|	c #182026",
"                ",
"                ",
"                ",
"        ....    ",
"    ...+@#$%&.  ",
"   .*.+=-;>,')  ",
"  .*!.....,~{]. ",
" .*!!****.~{^/. ",
" .(!!!!!!.{^_:. ",
"  .(!.....^_<[. ",
"   .(.&'{^_<}|  ",
"    ...)]/:[|.  ",
"        ....    ",
"                ",
"                ",
"                "};
